<svg width="29" height="29" viewBox="0 0 29 29" fill="none" xmlns="http://www.w3.org/2000/svg">
<g clip-path="url(#clip0_410_1331)">
<path d="M20.0751 2.23102C19.6876 2.85554 19.2934 3.44256 18.9532 4.0597C18.7752 4.38288 18.5661 4.46836 18.2093 4.46744C12.9563 4.45453 7.70295 4.45852 2.44959 4.45852C2.38471 4.45852 2.31951 4.45852 2.24663 4.45852C2.24663 11.8975 2.24663 19.3186 2.24663 26.7508C9.67507 26.7508 17.1007 26.7508 24.543 26.7508C24.543 26.6795 24.543 26.6146 24.543 26.5494C24.543 22.9655 24.5436 19.3816 24.5409 15.7978C24.5409 15.6692 24.5725 15.5631 24.6408 15.4546C25.3167 14.3808 25.9884 13.3046 26.6612 12.2293C26.688 12.1868 26.715 12.1444 26.7627 12.0694C26.771 12.1395 26.7787 12.1748 26.7787 12.2102C26.7793 17.0484 26.7818 21.8865 26.7775 26.7247C26.7762 28.0318 25.7928 28.9992 24.4855 28.9995C17.0869 29.0001 9.68829 29.0001 2.28968 28.9995C0.976883 28.9995 0.000509515 28.0211 0.000509515 26.7077C-0.000105524 19.3097 -0.000105524 11.9116 0.000201995 4.51357C0.000201995 3.20794 0.971656 2.22487 2.27738 2.22395C8.15531 2.22087 14.0332 2.22272 19.9112 2.22272C19.9557 2.22302 20.0003 2.22733 20.0751 2.23102Z" fill="#2691D8" stroke="white"/>
<path d="M14.0094 18.1894C14.0454 18.1414 14.0767 18.1027 14.105 18.0618C18.1178 12.2716 22.1307 6.48118 26.1429 0.6904C26.6472 -0.037444 27.5953 -0.216715 28.3213 0.281737C29.0406 0.775577 29.2171 1.71928 28.7159 2.44805C27.8665 3.68326 27.0101 4.91325 26.1564 6.1457C22.623 11.2474 19.0899 16.3494 15.5559 21.4507C15.4375 21.6214 15.3357 21.8173 15.1804 21.9461C14.6899 22.352 14.137 22.3849 13.5524 22.1583C13.3048 22.0623 13.1176 21.8981 12.9478 21.7044C11.0464 19.5319 9.14749 17.3576 7.24087 15.1901C7.00378 14.9207 6.78913 14.6529 6.71563 14.2907C6.57694 13.608 6.9272 12.9008 7.57238 12.5807C8.19019 12.2738 8.95068 12.4251 9.40612 12.9444C10.9105 14.6615 12.4152 16.3783 13.9199 18.095C13.9454 18.1248 13.974 18.1525 14.0094 18.1894Z" fill="#2691D8" stroke="white"/>
</g>
<defs>
<clipPath id="clip0_410_1331">
<rect width="29" height="29" fill="white"/>
</clipPath>
</defs>
</svg>
