<svg width="194" height="194" viewBox="0 0 194 194" fill="none" xmlns="http://www.w3.org/2000/svg">
<g clip-path="url(#clip0_384_300)">
<path d="M3.39101 6.81567C1.72977 6.99555 -0.033542 5.24544 0.000484762 3.45524C0.0381573 1.5836 1.5803 0 3.52104 0C5.16405 0 7.00149 1.60548 6.84351 3.69709C6.70984 5.46664 5.3439 6.81446 3.38979 6.81446L3.39101 6.81567Z" fill="white"/>
<path d="M23.8297 3.49298C23.8297 5.52382 22.4565 6.76956 20.3043 6.83154C18.7354 6.87651 16.994 5.2686 17.0158 3.47718C17.0365 1.58609 18.592 0.0146485 20.5133 6.43083e-05C22.2377 -0.0120892 24.0472 1.70034 23.8297 3.49298Z" fill="white"/>
<path d="M40.8432 3.46988C40.8432 5.5141 39.4785 6.76347 37.3409 6.83396C35.7538 6.88622 33.9844 5.25766 34.0281 3.44071C34.0743 1.57029 35.6031 0.0292286 37.5025 6.025e-05C39.2573 -0.0266774 41.0535 1.71249 40.8432 3.46988Z" fill="white"/>
<path d="M57.8549 3.46626C57.8549 5.51412 56.4926 6.76229 54.3562 6.83399C52.7667 6.88747 50.9973 5.25769 51.0398 3.44317C51.0836 1.5691 52.6148 0.0304716 54.5105 8.79052e-05C56.269 -0.0278651 58.0639 1.71373 57.8549 3.46626Z" fill="white"/>
<path d="M71.4946 6.81568C69.7775 7.01743 68.0117 5.23087 68.0555 3.44552C68.1017 1.56173 69.6292 0.0388983 71.5238 0.00243789C73.2069 -0.0303765 75.0601 1.6067 74.8973 3.70925C74.7624 5.45085 73.3953 6.8169 71.4946 6.8169V6.81568Z" fill="white"/>
<path d="M91.8851 3.47588C91.8851 5.51767 90.5192 6.76461 88.3767 6.83267C86.7969 6.88372 85.0238 5.2588 85.0712 3.43213C85.1199 1.57021 86.6438 0.0242912 88.5517 -1.57707e-05C90.298 -0.0231074 92.0978 1.70876 91.8851 3.47588Z" fill="white"/>
<path d="M108.895 3.48937C108.895 5.52143 107.523 6.76838 105.373 6.83158C103.8 6.87776 102.053 5.26742 102.082 3.48086C102.115 1.54967 103.635 0.0341311 105.574 0.00253205C107.303 -0.025421 109.11 1.70159 108.894 3.48937H108.895Z" fill="white"/>
<path d="M125.909 3.46131C125.909 5.51404 124.552 6.76098 122.416 6.83391C120.822 6.8886 119.055 5.25638 119.094 3.44794C119.133 1.58117 120.675 -0.00121465 122.621 6.99622e-07C124.332 0.0024314 126.111 1.70635 125.908 3.46131H125.909Z" fill="white"/>
<path d="M142.923 3.50026C142.923 5.52503 141.546 6.77076 139.39 6.83153C137.828 6.87528 136.076 5.26859 136.11 3.46987C136.146 1.54111 137.667 0.0316512 139.613 0.00369816C141.331 -0.0218242 143.144 1.70032 142.924 3.50026H142.923Z" fill="white"/>
<path d="M156.579 6.81564C154.838 7.02225 153.084 5.23083 153.122 3.46371C153.163 1.5386 154.682 0.0279195 156.631 0.00361253C158.284 -0.0170484 160.12 1.6103 159.962 3.68976C159.83 5.44108 158.468 6.81564 156.578 6.81564H156.579Z" fill="white"/>
<path d="M173.595 6.81564C171.853 7.02225 170.1 5.23083 170.137 3.46371C170.179 1.5386 171.698 0.0279195 173.647 0.00361253C175.3 -0.0170484 177.136 1.6103 176.978 3.68976C176.845 5.44108 175.483 6.81564 173.593 6.81564H173.595Z" fill="white"/>
<path d="M190.606 6.81564C188.865 7.02225 187.111 5.23083 187.149 3.46371C187.19 1.5386 188.709 0.0279195 190.659 0.00361253C192.311 -0.0170484 194.148 1.6103 193.99 3.68976C193.857 5.44108 192.495 6.81564 190.605 6.81564H190.606Z" fill="white"/>
<path d="M6.81681 20.4726C6.81681 22.5265 5.45939 23.7747 3.32664 23.8488C1.72859 23.9047 -0.0347222 22.2725 0.000519776 20.4665C0.0381923 18.5973 1.58033 17.0149 3.52472 17.0149C5.23943 17.0149 7.01854 18.7225 6.81681 20.4726Z" fill="white"/>
<path d="M23.8315 20.4799C23.8315 22.5302 22.4716 23.7772 20.334 23.8489C18.7432 23.9023 16.9738 22.2726 17.0164 20.4593C17.0613 18.5755 18.5889 17.0551 20.4859 17.0162C22.2456 16.9797 24.0405 18.7286 23.8315 20.4787V20.4799Z" fill="white"/>
<path d="M40.8434 20.4932C40.8434 22.5338 39.4762 23.7795 37.3326 23.8488C35.7552 23.8986 33.9797 22.2749 34.0283 20.447C34.0769 18.5875 35.6008 17.0404 37.5112 17.0161C39.2551 16.9942 41.0561 18.7236 40.8434 20.4932Z" fill="white"/>
<path d="M57.8576 20.4799C57.8576 22.5302 56.4977 23.7772 54.3613 23.8489C52.7706 23.9024 51.0012 22.2726 51.0437 20.4605C51.0887 18.5767 52.6162 17.0563 54.512 17.0174C56.2717 16.9809 58.0666 18.7298 57.8576 20.4799Z" fill="white"/>
<path d="M74.8694 20.4884C74.8694 22.5314 73.5035 23.7795 71.3647 23.8488C69.7812 23.8999 68.0094 22.2737 68.0556 20.4519C68.103 18.5864 69.6293 17.0429 71.5324 17.0161C73.2835 16.9918 75.0809 18.7261 74.8694 20.4884Z" fill="white"/>
<path d="M88.5283 23.8305C86.7868 24.0371 85.0332 22.2457 85.0709 20.4786C85.1122 18.5535 86.6313 17.0428 88.5805 17.0185C90.232 16.9978 92.0695 18.6252 91.9115 20.7047C91.779 22.456 90.4168 23.8305 88.5271 23.8305H88.5283Z" fill="white"/>
<path d="M105.529 23.8306C103.804 24.0348 102.041 22.2458 102.083 20.4678C102.128 18.5852 103.656 17.0563 105.544 17.0162C107.234 16.9809 109.086 18.6253 108.925 20.7169C108.79 22.4646 107.427 23.8306 105.529 23.8306Z" fill="white"/>
<path d="M125.908 20.5224C125.908 22.5265 124.534 23.7734 122.429 23.8488C120.819 23.9071 119.058 22.2713 119.094 20.4762C119.134 18.5535 120.657 17.0441 122.606 17.0173C124.316 16.9942 126.131 18.7115 125.908 20.5212V20.5224Z" fill="white"/>
<path d="M142.924 20.4787C142.924 22.5302 141.564 23.776 139.428 23.8489C137.837 23.9023 136.066 22.2726 136.11 20.4605C136.155 18.5767 137.683 17.0563 139.578 17.0162C141.339 16.9797 143.133 18.7298 142.924 20.4787Z" fill="white"/>
<path d="M159.937 20.4738C159.937 22.5277 158.579 23.7759 156.445 23.8488C154.85 23.9035 153.084 22.2725 153.122 20.4653C153.161 18.5973 154.703 17.0149 156.647 17.0149C158.361 17.0149 160.14 18.7225 159.937 20.4738Z" fill="white"/>
<path d="M176.95 20.5004C176.95 22.5373 175.58 23.7831 173.432 23.8475C171.853 23.8949 170.108 22.2821 170.137 20.5004C170.169 18.5644 171.685 17.0512 173.625 17.0184C175.359 16.9893 177.164 18.7199 176.95 20.5016V20.5004Z" fill="white"/>
<path d="M193.964 20.5067C193.964 22.5387 192.592 23.7845 190.439 23.8464C188.868 23.8926 187.129 22.2835 187.149 20.4933C187.169 18.601 188.726 17.0296 190.645 17.015C192.372 17.0016 194.18 18.7165 193.964 20.5067Z" fill="white"/>
<path d="M6.8155 37.4789C6.8155 39.539 5.46172 40.7883 3.33383 40.8637C1.72728 40.9208 -0.0311767 39.2862 0.000419625 37.4887C0.0332312 35.6122 1.58023 34.0334 3.51611 34.0286C5.23933 34.0249 7.01601 35.7398 6.8155 37.4777V37.4789Z" fill="white"/>
<path d="M23.8286 37.5165C23.8286 39.551 22.4578 40.7979 20.3093 40.8611C18.7319 40.9073 16.9868 39.297 17.016 37.5129C17.0476 35.578 18.5654 34.0649 20.5049 34.0321C22.2379 34.0029 24.0437 35.7336 23.8286 37.5165Z" fill="white"/>
<path d="M40.8434 37.5081C40.8434 39.5486 39.4762 40.7944 37.3326 40.8637C35.7552 40.9135 33.9797 39.2898 34.0283 37.4619C34.0769 35.6024 35.6008 34.0553 37.5112 34.031C39.2551 34.0091 41.0561 35.7385 40.8434 37.5081Z" fill="white"/>
<path d="M57.8547 37.4875C57.8547 39.5414 56.4973 40.7896 54.3645 40.8637C52.7677 40.9196 51.0032 39.2862 51.0396 37.4814C51.0773 35.6122 52.6194 34.0298 54.5638 34.0298C56.2785 34.0298 58.0564 35.7374 57.8547 37.4875Z" fill="white"/>
<path d="M74.8707 37.5093C74.8707 39.5486 73.5036 40.7956 71.3587 40.8637C69.7825 40.9135 68.0071 39.2898 68.0557 37.4607C68.1055 35.6024 69.627 34.0541 71.5398 34.031C73.2824 34.0091 75.0834 35.7373 74.8707 37.5093Z" fill="white"/>
<path d="M91.8821 37.4911C91.8821 39.545 90.5247 40.7908 88.3883 40.8637C86.7939 40.9184 85.0281 39.2874 85.067 37.4777C85.1059 35.611 86.6481 34.0274 88.5937 34.0298C90.3059 34.031 92.0851 35.7361 91.8821 37.4899V37.4911Z" fill="white"/>
<path d="M108.898 37.4985C108.898 39.5439 107.533 40.792 105.397 40.8638C103.808 40.916 102.039 39.2874 102.083 37.4705C102.128 35.5989 103.658 34.059 105.556 34.0298C107.312 34.0031 109.107 35.7423 108.898 37.4985Z" fill="white"/>
<path d="M125.908 37.4777C125.908 39.5377 124.554 40.7883 122.428 40.8637C120.819 40.9208 119.057 39.2862 119.094 37.4899C119.134 35.5684 120.66 34.0577 122.606 34.0322C124.331 34.0091 126.107 35.7398 125.907 37.4765L125.908 37.4777Z" fill="white"/>
<path d="M139.566 40.8454C137.826 41.052 136.072 39.2606 136.11 37.4923C136.151 35.5672 137.672 34.0577 139.621 34.0334C141.272 34.0127 143.109 35.6401 142.952 37.7195C142.819 39.4696 141.456 40.8442 139.567 40.8442L139.566 40.8454Z" fill="white"/>
<path d="M159.935 37.5216C159.935 39.5536 158.563 40.7981 156.411 40.8613C154.84 40.9075 153.101 39.2984 153.121 37.5082C153.143 35.6159 154.699 34.0444 156.619 34.0299C158.344 34.0165 160.154 35.7314 159.936 37.5216H159.935Z" fill="white"/>
<path d="M176.951 37.5216C176.951 39.5536 175.579 40.7981 173.427 40.8613C171.855 40.9075 170.116 39.2984 170.137 37.5082C170.159 35.6159 171.714 34.0444 173.634 34.0299C175.36 34.0165 177.17 35.7314 176.952 37.5216H176.951Z" fill="white"/>
<path d="M190.605 40.8454C188.865 41.052 187.111 39.2606 187.149 37.4923C187.19 35.5684 188.711 34.0577 190.66 34.0334C192.311 34.0127 194.148 35.6401 193.99 37.7195C193.857 39.4696 192.494 40.8442 190.605 40.8442V40.8454Z" fill="white"/>
<path d="M3.47456 57.8604C1.71124 58.0719 -0.0204761 56.2744 0.00018302 54.5243C0.0232726 52.6308 1.57878 51.0569 3.49643 51.0459C5.14309 51.0362 7.01334 52.6271 6.84199 54.7807C6.7071 56.4822 5.3278 57.8616 3.47334 57.8616L3.47456 57.8604Z" fill="white"/>
<path d="M23.8309 54.5389C23.8309 56.5685 22.4577 57.8142 20.3043 57.8762C18.7366 57.9212 16.9951 56.3133 17.0158 54.5206C17.0389 52.6308 18.5932 51.0581 20.5145 51.0447C22.2377 51.0326 24.0484 52.745 23.8297 54.5389H23.8309Z" fill="white"/>
<path d="M37.4757 57.8602C35.7488 58.0644 33.9867 56.2754 34.0281 54.4973C34.0718 52.6123 35.5994 51.0847 37.4879 51.0458C39.1795 51.0093 41.0315 52.6561 40.8699 54.7453C40.735 56.493 39.3727 57.8602 37.4745 57.8602H37.4757Z" fill="white"/>
<path d="M57.8576 54.5119C57.8576 56.5586 56.4941 57.8079 54.3589 57.8784C52.7694 57.9319 51 56.3021 51.0438 54.4876C51.0887 52.6148 52.6187 51.0749 54.5145 51.0445C56.2729 51.0166 58.0666 52.7582 57.8576 54.5107V54.5119Z" fill="white"/>
<path d="M71.5281 57.8604C69.7647 58.0719 68.033 56.2744 68.0549 54.5243C68.078 52.6308 69.6335 51.0581 71.5511 51.0447C73.2197 51.0338 75.051 52.6636 74.8979 54.7187C74.7667 56.4822 73.4141 57.8604 71.5293 57.8604H71.5281Z" fill="white"/>
<path d="M88.5439 57.8604C86.7769 58.0719 85.0391 56.2731 85.0707 54.5255C85.106 52.5931 86.6238 51.0763 88.5621 51.0471C90.2112 51.0228 92.0802 52.6271 91.9101 54.7771C91.7752 56.4798 90.3971 57.8592 88.5439 57.8592V57.8604Z" fill="white"/>
<path d="M105.579 57.8603C103.792 58.0828 102.038 56.2585 102.083 54.4853C102.13 52.6137 103.658 51.0714 105.556 51.0447C107.234 51.0216 109.09 52.6465 108.925 54.7576C108.79 56.4736 107.424 57.8603 105.578 57.8603H105.579Z" fill="white"/>
<path d="M125.909 54.4975C125.909 56.5551 124.554 57.8045 122.425 57.8798C120.821 57.9357 119.061 56.3023 119.094 54.5024C119.128 52.6283 120.674 51.0483 122.612 51.0459C124.333 51.0435 126.11 52.7559 125.909 54.4975Z" fill="white"/>
<path d="M142.925 54.4987C142.925 56.5551 141.569 57.8044 139.438 57.8786C137.837 57.9345 136.076 56.3011 136.11 54.4987C136.145 52.6271 137.69 51.0459 139.63 51.0435C141.349 51.0422 143.127 52.7522 142.925 54.4975V54.4987Z" fill="white"/>
<path d="M159.937 54.5266C159.937 56.5647 158.568 57.8116 156.422 57.8761C154.84 57.9235 153.097 56.3107 153.125 54.5314C153.156 52.5942 154.674 51.0798 156.609 51.0458C158.347 51.0154 160.151 52.7485 159.937 54.5253V54.5266Z" fill="white"/>
<path d="M173.618 57.8602C171.84 58.0741 170.108 56.2705 170.137 54.5326C170.17 52.5953 171.685 51.0773 173.621 51.047C175.281 51.0202 177.145 52.633 176.976 54.7708C176.842 56.4771 175.466 57.8602 173.618 57.8602Z" fill="white"/>
<path d="M193.963 54.517C193.963 56.56 192.597 57.8081 190.46 57.8786C188.875 57.9309 187.104 56.3023 187.149 54.4829C187.195 52.6149 188.723 51.0727 190.625 51.0459C192.377 51.0204 194.173 52.7571 193.963 54.517Z" fill="white"/>
<path d="M3.45557 74.8752C1.71777 75.0818 -0.0382535 73.2904 0.000634217 71.5208C0.0419524 69.5994 1.56465 68.0875 3.51268 68.0632C5.16177 68.0425 6.99921 69.6687 6.84123 71.7518C6.70877 73.5006 5.34527 74.8752 3.45435 74.8752H3.45557Z" fill="white"/>
<path d="M20.4712 74.8752C18.7334 75.0818 16.9774 73.2904 17.0163 71.5208C17.0576 69.5994 18.5803 68.0875 20.5283 68.0632C22.1774 68.0425 24.0148 69.6687 23.8569 71.7518C23.7244 73.5006 22.3609 74.8752 20.47 74.8752H20.4712Z" fill="white"/>
<path d="M37.4829 74.8752C35.7451 75.0818 33.9891 73.2904 34.028 71.5208C34.0693 69.5994 35.592 68.0875 37.54 68.0632C39.1891 68.0425 41.0266 69.6687 40.8686 71.7518C40.7361 73.5006 39.3726 74.8752 37.4817 74.8752H37.4829Z" fill="white"/>
<path d="M57.8561 71.5574C57.8561 73.5846 56.4804 74.8303 54.3258 74.8911C52.7618 74.9361 51.0106 73.3282 51.0434 71.5319C51.0787 69.6055 52.6026 68.0912 54.5433 68.0633C56.2629 68.0377 58.0748 69.7599 57.8561 71.5574Z" fill="white"/>
<path d="M71.5126 74.8752C69.7712 75.0818 68.0176 73.2904 68.0553 71.5233C68.0966 69.5969 69.6157 68.0875 71.5661 68.0632C73.2176 68.0425 75.0551 69.6699 74.8971 71.7493C74.7646 73.5006 73.4023 74.8752 71.5126 74.8752Z" fill="white"/>
<path d="M91.8825 71.5391C91.8825 73.5784 90.5153 74.8254 88.3704 74.8934C86.7942 74.9433 85.0188 73.3196 85.0674 71.4905C85.1172 69.6322 86.6387 68.0851 88.5515 68.0608C90.2941 68.0389 92.0951 69.7671 91.8825 71.5391Z" fill="white"/>
<path d="M108.897 71.5511C108.897 73.5832 107.525 74.8289 105.373 74.8921C103.801 74.9383 102.063 73.3292 102.082 71.5389C102.103 69.6454 103.66 68.0752 105.578 68.0594C107.305 68.046 109.114 69.7609 108.897 71.5499V71.5511Z" fill="white"/>
<path d="M125.911 71.5598C125.911 73.5846 124.534 74.8303 122.378 74.8911C120.816 74.9348 119.064 73.3282 119.098 71.5294C119.135 69.6007 120.655 68.0912 122.602 68.0633C124.319 68.0377 126.132 69.7599 125.912 71.5598H125.911Z" fill="white"/>
<path d="M142.925 71.5256C142.925 73.5735 141.563 74.8216 139.427 74.8933C137.837 74.9468 136.068 73.317 136.11 71.5025C136.154 69.6284 137.685 68.0898 139.581 68.0594C141.339 68.0315 143.133 69.7731 142.925 71.5256Z" fill="white"/>
<path d="M159.937 71.5148C159.937 73.57 158.579 74.8193 156.449 74.8935C154.848 74.9494 153.086 73.3172 153.122 71.5136C153.158 69.642 154.701 68.0608 156.642 68.0596C158.359 68.0584 160.137 69.7684 159.937 71.5148Z" fill="white"/>
<path d="M176.951 71.5318C176.951 73.5748 175.586 74.823 173.447 74.8923C171.862 74.9445 170.091 73.3172 170.138 71.4954C170.185 69.6286 171.711 68.0863 173.614 68.0584C175.367 68.0341 177.163 69.7696 176.951 71.5306V71.5318Z" fill="white"/>
<path d="M193.964 71.5197C193.964 73.5736 192.607 74.8206 190.471 74.8935C188.877 74.9482 187.111 73.3172 187.149 71.5087C187.188 69.6407 188.73 68.0584 190.676 68.0596C192.388 68.0608 194.167 69.7659 193.965 71.5197H193.964Z" fill="white"/>
<path d="M6.8153 88.5708C6.8153 90.5992 5.44087 91.845 3.28624 91.9057C1.71979 91.9507 -0.0228626 90.3428 0.000226992 88.5477C0.0233166 86.6603 1.57761 85.0864 3.50134 85.0743C5.22212 85.0633 7.03405 86.7745 6.8153 88.5696V88.5708Z" fill="white"/>
<path d="M20.51 91.8902C18.7212 92.1138 16.9688 90.2883 17.0125 88.5164C17.0599 86.6435 18.5875 85.1024 20.4845 85.0745C22.1639 85.0502 24.0196 86.6775 23.8543 88.7862C23.7194 90.5034 22.3535 91.8902 20.5088 91.8902H20.51Z" fill="white"/>
<path d="M40.843 88.5333C40.843 90.5873 39.4856 91.8354 37.3516 91.9084C35.7548 91.9631 33.9903 90.3321 34.0279 88.5248C34.0656 86.6556 35.609 85.0732 37.5521 85.0745C39.2656 85.0745 41.0447 86.782 40.843 88.5321V88.5333Z" fill="white"/>
<path d="M57.8551 88.554C57.8551 90.5933 56.488 91.8403 54.3431 91.9083C52.7669 91.9582 50.9914 90.3345 51.04 88.5054C51.0899 86.6471 52.6113 85.0987 54.5241 85.0756C56.2668 85.0538 58.0678 86.782 57.8551 88.554Z" fill="white"/>
<path d="M71.5114 91.8901C69.7712 92.0967 68.0176 90.3053 68.0553 88.537C68.0966 86.6118 69.6169 85.1024 71.5661 85.0781C73.2176 85.0574 75.0539 86.6848 74.8971 88.7642C74.7646 90.5143 73.4011 91.8889 71.5126 91.8889L71.5114 91.8901Z" fill="white"/>
<path d="M91.8833 88.56C91.8833 90.5969 90.5137 91.8426 88.3652 91.907C86.7866 91.9544 85.0415 90.3417 85.0707 88.56C85.1023 86.6239 86.6189 85.1108 88.5584 85.078C90.2926 85.0488 92.0972 86.7795 91.8833 88.5612V88.56Z" fill="white"/>
<path d="M105.542 91.8901C103.797 92.0979 102.046 90.3053 102.083 88.5418C102.123 86.6143 103.641 85.1048 105.59 85.0781C107.244 85.0562 109.081 86.686 108.924 88.7618C108.792 90.5156 107.431 91.8901 105.544 91.8901H105.542Z" fill="white"/>
<path d="M125.912 88.5672C125.912 90.598 124.538 91.8438 122.386 91.9058C120.817 91.9507 119.076 90.3428 119.098 88.5514C119.12 86.6603 120.675 85.0889 122.597 85.0743C124.321 85.0621 126.13 86.7746 125.913 88.5672H125.912Z" fill="white"/>
<path d="M139.565 91.8901C137.826 92.0967 136.071 90.3041 136.11 88.5357C136.151 86.6131 137.674 85.1024 139.622 85.0781C141.272 85.0574 143.109 86.6835 142.951 88.7654C142.818 90.5143 141.455 91.8889 139.565 91.8889V91.8901Z" fill="white"/>
<path d="M156.611 91.89C154.825 92.1051 153.097 90.2991 153.125 88.5685C153.157 86.63 154.671 85.1096 156.603 85.0768C158.271 85.0488 160.131 86.6689 159.965 88.7945C159.83 90.5033 158.457 91.8888 156.611 91.8888V91.89Z" fill="white"/>
<path d="M176.949 88.538C176.949 90.5895 175.59 91.8365 173.452 91.9082C171.86 91.9617 170.091 90.3319 170.134 88.5198C170.179 86.636 171.706 85.1144 173.602 85.0755C175.363 85.0391 177.156 86.7892 176.949 88.5368V88.538Z" fill="white"/>
<path d="M190.6 91.8901C188.87 92.0955 187.114 90.3053 187.149 88.5309C187.185 86.6581 188.729 85.0757 190.668 85.0757C192.313 85.0757 194.15 86.6812 193.992 88.7728C193.86 90.5217 192.496 91.8914 190.6 91.8914V91.8901Z" fill="white"/>
<path d="M3.47337 108.905C1.71005 109.116 -0.0216693 107.319 0.000205065 105.569C0.0232947 103.675 1.5788 102.101 3.49646 102.09C5.14311 102.081 7.01337 103.672 6.84202 105.825C6.70713 107.527 5.32783 108.906 3.47337 108.906V108.905Z" fill="white"/>
<path d="M23.8297 105.582C23.8297 107.613 22.4565 108.859 20.3043 108.921C18.7342 108.966 16.994 107.358 17.0158 105.566C17.0377 103.676 18.5932 102.104 20.5145 102.089C22.2389 102.077 24.0484 103.789 23.8309 105.582H23.8297Z" fill="white"/>
<path d="M37.5181 108.905C35.7305 109.121 34.0036 107.313 34.0316 105.585C34.0632 103.646 35.5774 102.125 37.5084 102.092C39.1793 102.063 41.0387 103.686 40.871 105.808C40.7361 107.518 39.3641 108.905 37.5181 108.905Z" fill="white"/>
<path d="M57.855 105.56C57.855 107.605 56.489 108.853 54.3514 108.923C52.7655 108.976 50.9949 107.347 51.0399 105.529C51.0861 103.661 52.6136 102.119 54.5155 102.091C56.2691 102.065 58.0652 103.802 57.855 105.56Z" fill="white"/>
<path d="M71.5126 108.905C69.7712 109.112 68.0176 107.32 68.0553 105.553C68.0966 103.628 69.6157 102.117 71.5649 102.093C73.2164 102.072 75.0539 103.7 74.8959 105.779C74.7634 107.53 73.4011 108.905 71.5114 108.905H71.5126Z" fill="white"/>
<path d="M88.5283 108.905C86.7868 109.112 85.0332 107.32 85.0709 105.553C85.1122 103.628 86.6313 102.117 88.5805 102.093C90.232 102.072 92.0695 103.7 91.9115 105.779C91.779 107.53 90.4168 108.905 88.5271 108.905H88.5283Z" fill="white"/>
<path d="M108.898 105.549C108.898 107.603 107.54 108.85 105.405 108.923C103.811 108.978 102.045 107.347 102.083 105.539C102.122 103.671 103.664 102.088 105.609 102.089C107.322 102.091 109.101 103.797 108.899 105.549H108.898Z" fill="white"/>
<path d="M125.909 105.549C125.909 107.603 124.552 108.85 122.418 108.924C120.822 108.979 119.058 107.348 119.094 105.54C119.133 103.672 120.675 102.089 122.62 102.091C124.333 102.091 126.111 103.798 125.909 105.549Z" fill="white"/>
<path d="M139.567 108.905C137.826 109.112 136.072 107.32 136.11 105.553C136.151 103.628 137.67 102.117 139.62 102.093C141.272 102.072 143.109 103.7 142.951 105.779C142.818 107.53 141.456 108.905 139.566 108.905H139.567Z" fill="white"/>
<path d="M156.579 108.905C154.838 109.112 153.084 107.32 153.122 105.553C153.163 103.628 154.682 102.117 156.631 102.093C158.284 102.072 160.12 103.7 159.962 105.779C159.83 107.53 158.468 108.905 156.578 108.905H156.579Z" fill="white"/>
<path d="M173.595 108.905C171.853 109.112 170.1 107.32 170.137 105.553C170.179 103.628 171.698 102.117 173.647 102.093C175.3 102.072 177.136 103.7 176.978 105.779C176.845 107.53 175.483 108.905 173.593 108.905H173.595Z" fill="white"/>
<path d="M190.606 108.905C188.865 109.112 187.111 107.32 187.149 105.553C187.19 103.628 188.709 102.117 190.659 102.093C192.311 102.072 194.148 103.7 193.99 105.779C193.857 107.53 192.495 108.905 190.605 108.905H190.606Z" fill="white"/>
<path d="M6.81601 122.581C6.81601 124.622 5.44886 125.869 3.30639 125.937C1.72779 125.988 -0.0464651 124.363 0.000929298 122.536C0.049539 120.676 1.57345 119.13 3.4826 119.104C5.22768 119.081 7.02746 120.812 6.81601 122.581Z" fill="white"/>
<path d="M20.476 125.92C18.7309 126.128 16.9797 124.335 17.0162 122.572C17.0563 120.644 18.5741 119.135 20.5234 119.108C22.1773 119.086 24.0148 120.716 23.858 122.79C23.7255 124.544 22.3645 125.919 20.4772 125.919L20.476 125.92Z" fill="white"/>
<path d="M40.8426 122.598C40.8426 124.628 39.4694 125.874 37.316 125.936C35.7483 125.981 34.0069 124.373 34.0275 122.58C34.0506 120.691 35.6049 119.117 37.5274 119.104C39.2506 119.092 41.0601 120.804 40.8426 122.598Z" fill="white"/>
<path d="M57.8576 122.571C57.8576 124.618 56.4941 125.868 54.3589 125.938C52.7694 125.991 51 124.362 51.0438 122.547C51.0887 120.674 52.6187 119.134 54.5145 119.105C56.2729 119.077 58.0666 120.819 57.8576 122.571Z" fill="white"/>
<path d="M71.5455 125.92C69.7578 126.136 68.031 124.328 68.0589 122.599C68.0893 120.661 69.6047 119.139 71.5357 119.107C73.2067 119.077 75.066 120.701 74.8983 122.823C74.7634 124.533 73.3914 125.92 71.5467 125.92H71.5455Z" fill="white"/>
<path d="M91.8824 122.579C91.8824 124.621 90.5164 125.869 88.3752 125.938C86.7929 125.989 85.0211 124.363 85.0673 122.54C85.1147 120.676 86.641 119.131 88.5465 119.105C90.2953 119.081 92.0938 120.815 91.8824 122.58V122.579Z" fill="white"/>
<path d="M108.898 122.579C108.898 124.621 107.532 125.869 105.391 125.938C103.809 125.989 102.037 124.363 102.083 122.54C102.13 120.676 103.657 119.131 105.562 119.105C107.311 119.081 109.109 120.815 108.898 122.58V122.579Z" fill="white"/>
<path d="M125.91 122.579C125.91 124.621 124.544 125.869 122.403 125.938C120.82 125.989 119.048 124.363 119.095 122.54C119.142 120.676 120.668 119.131 122.574 119.105C124.323 119.081 126.121 120.815 125.91 122.58V122.579Z" fill="white"/>
<path d="M142.925 122.579C142.925 124.621 141.559 125.869 139.418 125.938C137.836 125.989 136.064 124.363 136.11 122.54C136.158 120.676 137.684 119.131 139.589 119.105C141.338 119.081 143.137 120.815 142.925 122.58V122.579Z" fill="white"/>
<path d="M159.937 122.579C159.937 124.621 158.571 125.869 156.43 125.938C154.848 125.989 153.076 124.363 153.122 122.54C153.169 120.676 154.696 119.131 156.601 119.105C158.35 119.081 160.149 120.815 159.937 122.58V122.579Z" fill="white"/>
<path d="M176.952 122.596C176.952 124.628 175.58 125.874 173.428 125.936C171.856 125.982 170.117 124.373 170.137 122.582C170.158 120.69 171.714 119.119 173.633 119.104C175.36 119.091 177.168 120.806 176.952 122.596Z" fill="white"/>
<path d="M193.963 122.568C193.963 124.619 192.603 125.865 190.467 125.938C188.876 125.991 187.105 124.362 187.149 122.55C187.194 120.666 188.722 119.145 190.618 119.105C192.378 119.069 194.172 120.819 193.963 122.568Z" fill="white"/>
<path d="M6.81466 139.586C6.81466 141.633 5.45115 142.882 3.31597 142.953C1.72644 143.006 -0.0429535 141.377 0.000795234 139.562C0.0457592 137.689 1.57575 136.149 3.47153 136.119C5.22877 136.091 7.02368 137.833 6.81466 139.585V139.586Z" fill="white"/>
<path d="M23.8287 139.618C23.8287 141.644 22.4519 142.89 20.2972 142.95C18.7344 142.994 16.9833 141.387 17.0161 139.59C17.0513 137.662 18.574 136.151 20.5184 136.123C22.2355 136.097 24.0487 137.819 23.8299 139.618H23.8287Z" fill="white"/>
<path d="M40.843 139.579C40.843 141.633 39.4856 142.88 37.3504 142.953C35.756 143.007 33.9903 141.377 34.0279 139.568C34.0668 137.7 35.609 136.118 37.5546 136.12C39.2668 136.121 41.046 137.826 40.843 139.58V139.579Z" fill="white"/>
<path d="M57.8578 139.595C57.8578 141.637 56.4918 142.884 54.3506 142.953C52.7695 143.004 50.9965 141.378 51.0439 139.554C51.0913 137.691 52.6176 136.146 54.5231 136.12C56.2707 136.097 58.0692 137.829 57.8578 139.595Z" fill="white"/>
<path d="M74.8717 139.62C74.8717 141.645 73.4936 142.891 71.339 142.95C69.7774 142.994 68.0251 141.387 68.0591 139.589C68.0955 137.66 69.6158 136.151 71.5626 136.123C73.2785 136.098 75.0917 137.819 74.8717 139.62Z" fill="white"/>
<path d="M88.5283 142.935C86.7868 143.141 85.0332 141.35 85.0709 139.583C85.1122 137.658 86.6313 136.147 88.5805 136.123C90.232 136.102 92.0695 137.729 91.9115 139.809C91.779 141.56 90.4168 142.935 88.5271 142.935H88.5283Z" fill="white"/>
<path d="M105.54 142.935C103.799 143.141 102.045 141.35 102.083 139.583C102.124 137.658 103.643 136.147 105.592 136.123C107.244 136.102 109.081 137.729 108.923 139.809C108.791 141.56 107.428 142.935 105.539 142.935H105.54Z" fill="white"/>
<path d="M125.909 139.595C125.909 141.637 124.543 142.883 122.4 142.952C120.82 143.003 119.046 141.377 119.095 139.551C119.143 137.689 120.667 136.143 122.575 136.118C124.321 136.095 126.121 137.827 125.909 139.594V139.595Z" fill="white"/>
<path d="M142.925 139.579C142.925 141.633 141.568 142.88 139.432 142.953C137.838 143.008 136.072 141.377 136.11 139.568C136.149 137.7 137.691 136.118 139.637 136.119C141.349 136.12 143.128 137.825 142.926 139.579H142.925Z" fill="white"/>
<path d="M159.937 139.586C159.937 141.633 158.573 142.881 156.437 142.953C154.849 143.006 153.078 141.377 153.122 139.561C153.167 137.688 154.697 136.149 156.594 136.119C158.351 136.091 160.146 137.833 159.937 139.586Z" fill="white"/>
<path d="M173.593 142.935C171.853 143.141 170.1 141.35 170.137 139.582C170.179 137.658 171.699 136.147 173.648 136.123C175.3 136.102 177.136 137.729 176.978 139.809C176.845 141.559 175.482 142.934 173.593 142.934V142.935Z" fill="white"/>
<path d="M193.964 139.574C193.964 141.63 192.607 142.879 190.476 142.953C188.876 143.009 187.114 141.376 187.149 139.572C187.185 137.702 188.729 136.12 190.671 136.118C192.388 136.118 194.166 137.827 193.964 139.573V139.574Z" fill="white"/>
<path d="M6.81694 156.624C6.81694 158.656 5.44493 159.903 3.29396 159.967C1.72143 160.013 -0.0260842 158.404 0.00429684 156.615C0.0371084 154.683 1.55859 153.169 3.4969 153.138C5.22498 153.11 7.03326 154.837 6.81694 156.624Z" fill="white"/>
<path d="M23.8315 156.6C23.8315 158.648 22.4692 159.896 20.3328 159.968C18.7432 160.021 16.9738 158.391 17.0164 156.577C17.0613 154.694 18.5901 153.174 20.4871 153.135C22.2456 153.1 24.0405 154.847 23.8315 156.599V156.6Z" fill="white"/>
<path d="M37.4853 159.95C35.7439 160.156 33.9903 158.365 34.0279 156.598C34.0693 154.671 35.5883 153.162 37.5388 153.138C39.1903 153.117 41.0277 154.744 40.8698 156.824C40.7373 158.575 39.375 159.95 37.4853 159.95Z" fill="white"/>
<path d="M57.8548 156.598C57.8548 158.65 56.4961 159.896 54.3597 159.969C52.7678 160.022 51.0008 158.393 51.0397 156.582C51.0798 154.716 52.6219 153.133 54.5688 153.136C56.2786 153.139 58.0577 154.841 57.8548 156.599V156.598Z" fill="white"/>
<path d="M74.8703 156.589C74.8703 158.644 73.5129 159.894 71.3825 159.968C69.7821 160.024 68.02 158.39 68.0552 156.587C68.0917 154.716 69.635 153.135 71.577 153.133C73.2941 153.133 75.072 154.842 74.8703 156.588V156.589Z" fill="white"/>
<path d="M91.8833 156.621C91.8833 158.655 90.5125 159.902 88.364 159.965C86.7866 160.012 85.0415 158.401 85.0707 156.617C85.1023 154.682 86.6201 153.169 88.5596 153.136C90.2913 153.107 92.0984 154.837 91.8833 156.621Z" fill="white"/>
<path d="M105.542 159.949C103.797 160.157 102.046 158.365 102.083 156.601C102.123 154.674 103.641 153.164 105.59 153.137C107.244 153.116 109.081 154.745 108.924 156.821C108.792 158.575 107.431 159.949 105.544 159.949H105.542Z" fill="white"/>
<path d="M122.577 159.95C120.802 160.162 119.069 158.36 119.098 156.621C119.132 154.683 120.646 153.167 122.583 153.136C124.241 153.111 126.106 154.721 125.937 156.861C125.803 158.566 124.427 159.95 122.576 159.95H122.577Z" fill="white"/>
<path d="M142.922 156.62C142.922 158.656 141.554 159.902 139.404 159.967C137.826 160.014 136.081 158.401 136.11 156.62C136.141 154.683 137.658 153.17 139.597 153.138C141.332 153.108 143.136 154.839 142.922 156.621V156.62Z" fill="white"/>
<path d="M156.577 159.95C154.839 160.156 153.083 158.365 153.122 156.595C153.163 154.674 154.686 153.162 156.635 153.138C158.284 153.117 160.122 154.743 159.964 156.826C159.831 158.575 158.468 159.95 156.577 159.95Z" fill="white"/>
<path d="M176.951 156.628C176.951 158.658 175.578 159.903 173.424 159.965C171.856 160.01 170.115 158.402 170.137 156.61C170.16 154.721 171.714 153.147 173.637 153.134C175.36 153.122 177.17 154.834 176.952 156.628H176.951Z" fill="white"/>
<path d="M193.965 156.635C193.965 158.66 192.587 159.906 190.433 159.965C188.871 160.009 187.12 158.402 187.153 156.604C187.189 154.675 188.71 153.165 190.656 153.137C192.372 153.113 194.185 154.834 193.965 156.635Z" fill="white"/>
<path d="M3.45914 176.965C1.71648 177.171 -0.0358981 175.38 0.000559179 173.614C0.0406622 171.688 1.55971 170.178 3.50896 170.153C5.16169 170.132 6.99792 171.76 6.84116 173.837C6.70869 175.589 5.34641 176.965 3.45792 176.965H3.45914Z" fill="white"/>
<path d="M23.8286 173.632C23.8286 175.67 22.4602 176.917 20.3129 176.982C18.7307 177.029 16.988 175.416 17.016 173.637C17.0463 171.7 18.5642 170.185 20.5013 170.152C22.2391 170.122 24.0425 171.855 23.8286 173.633V173.632Z" fill="white"/>
<path d="M40.8421 173.625C40.8421 175.667 39.4762 176.914 37.3349 176.983C35.7539 177.034 33.9809 175.408 34.0283 173.583C34.0757 171.72 35.602 170.176 37.5075 170.15C39.255 170.127 41.0536 171.859 40.8421 173.625Z" fill="white"/>
<path d="M57.8551 173.627C57.8551 175.668 56.488 176.914 54.3443 176.983C52.7669 177.033 50.9914 175.409 51.04 173.581C51.0886 171.722 52.6126 170.174 54.5229 170.15C56.2668 170.128 58.0678 171.858 57.8551 173.627Z" fill="white"/>
<path d="M74.8704 173.612C74.8704 175.664 73.5118 176.911 71.3742 176.983C69.7834 177.036 68.0153 175.406 68.0554 173.594C68.0955 171.729 69.6376 170.145 71.5844 170.149C73.293 170.152 75.0734 171.854 74.8704 173.611V173.612Z" fill="white"/>
<path d="M91.8813 173.63C91.8813 175.669 90.5141 176.915 88.3692 176.983C86.7931 177.033 85.0176 175.409 85.0674 173.58C85.1173 171.723 86.6387 170.174 88.5515 170.151C90.293 170.131 92.094 171.858 91.8813 173.631V173.63Z" fill="white"/>
<path d="M108.895 173.649C108.895 175.674 107.518 176.919 105.362 176.98C103.8 177.024 102.048 175.417 102.083 173.619C102.118 171.69 103.639 170.18 105.585 170.152C107.302 170.127 109.115 171.849 108.895 173.649Z" fill="white"/>
<path d="M122.564 176.964C120.807 177.175 119.07 175.378 119.094 173.623C119.12 171.735 120.671 170.16 122.595 170.149C124.258 170.139 126.091 171.764 125.937 173.828C125.805 175.587 124.45 176.964 122.564 176.964Z" fill="white"/>
<path d="M142.924 173.62C142.924 175.664 141.559 176.912 139.422 176.983C137.836 177.035 136.065 175.406 136.11 173.588C136.156 171.719 137.684 170.178 139.585 170.149C141.339 170.123 143.134 171.861 142.924 173.619V173.62Z" fill="white"/>
<path d="M159.936 173.627C159.936 175.668 158.569 176.914 156.425 176.982C154.848 177.031 153.073 175.408 153.122 173.58C153.172 171.722 154.695 170.173 156.605 170.15C158.349 170.128 160.149 171.858 159.936 173.628V173.627Z" fill="white"/>
<path d="M176.949 173.616C176.949 175.662 175.585 176.911 173.449 176.983C171.86 177.036 170.091 175.406 170.134 173.591C170.179 171.718 171.709 170.179 173.606 170.149C175.363 170.121 177.158 171.862 176.949 173.616Z" fill="white"/>
<path d="M193.965 173.634C193.965 175.671 192.596 176.917 190.447 176.981C188.869 177.029 187.124 175.416 187.153 173.634C187.184 171.698 188.701 170.185 190.64 170.152C192.375 170.123 194.179 171.854 193.965 173.636V173.634Z" fill="white"/>
<path d="M3.4971 193.979C1.70948 194.202 -0.0441174 192.377 0.000846552 190.604C0.048241 188.733 1.5758 187.19 3.47401 187.164C5.15226 187.14 7.00915 188.765 6.84266 190.876C6.70777 192.593 5.34183 193.979 3.49588 193.979H3.4971Z" fill="white"/>
<path d="M20.4724 193.979C18.7321 194.186 16.9785 192.395 17.0162 190.626C17.0575 188.702 18.5778 187.192 20.5271 187.167C22.1774 187.147 24.0148 188.773 23.8568 190.855C23.7244 192.605 22.3609 193.979 20.4712 193.979H20.4724Z" fill="white"/>
<path d="M40.843 190.622C40.843 192.676 39.4856 193.925 37.3516 193.997C35.756 194.052 33.9903 192.421 34.0279 190.614C34.0668 188.746 35.609 187.164 37.5534 187.164C39.2668 187.164 41.046 188.871 40.843 190.622Z" fill="white"/>
<path d="M57.8547 190.622C57.8547 192.676 56.4973 193.925 54.3633 193.997C52.7677 194.052 51.002 192.421 51.0397 190.614C51.0785 188.746 52.6207 187.164 54.5651 187.164C56.2786 187.164 58.0577 188.871 57.8547 190.622Z" fill="white"/>
<path d="M71.5518 193.979C69.7642 194.202 68.0106 192.377 68.0555 190.604C68.1029 188.733 69.6305 187.19 71.5287 187.164C73.2069 187.14 75.0638 188.765 74.8973 190.876C74.7625 192.593 73.3965 193.979 71.5506 193.979H71.5518Z" fill="white"/>
<path d="M91.8834 190.664C91.8834 192.689 90.5066 193.934 88.3507 193.995C86.7892 194.039 85.0368 192.432 85.0708 190.633C85.1073 188.705 86.6275 187.195 88.5743 187.167C90.2915 187.142 92.1034 188.864 91.8847 190.664H91.8834Z" fill="white"/>
<path d="M108.897 190.657C108.897 192.689 107.525 193.933 105.372 193.995C103.802 194.04 102.062 192.432 102.082 190.641C102.104 188.75 103.66 187.177 105.58 187.164C107.305 187.15 109.114 188.864 108.897 190.657Z" fill="white"/>
<path d="M122.575 193.979C120.803 194.192 119.068 192.391 119.098 190.648C119.132 188.712 120.647 187.196 122.587 187.167C124.241 187.142 126.108 188.75 125.939 190.895C125.804 192.599 124.427 193.981 122.575 193.981V193.979Z" fill="white"/>
<path d="M139.566 193.979C137.826 194.186 136.072 192.395 136.11 190.626C136.151 188.702 137.673 187.192 139.622 187.167C141.272 187.147 143.11 188.774 142.952 190.855C142.819 192.605 141.456 193.979 139.566 193.979Z" fill="white"/>
<path d="M159.936 190.631C159.936 192.676 158.571 193.926 156.436 193.998C154.848 194.051 153.078 192.421 153.122 190.606C153.167 188.734 154.697 187.194 156.594 187.164C158.351 187.136 160.146 188.876 159.936 190.631Z" fill="white"/>
<path d="M173.593 193.979C171.853 194.186 170.1 192.395 170.137 190.626C170.179 188.701 171.699 187.192 173.648 187.167C175.3 187.147 177.136 188.774 176.979 190.854C176.847 192.604 175.483 193.978 173.595 193.978L173.593 193.979Z" fill="white"/>
<path d="M193.964 190.658C193.964 192.687 192.59 193.933 190.437 193.995C188.868 194.04 187.128 192.432 187.149 190.64C187.17 188.75 188.726 187.177 190.647 187.164C192.371 187.151 194.181 188.864 193.964 190.658Z" fill="white"/>
</g>
<defs>
<clipPath id="clip0_384_300">
<rect width="194" height="194" fill="white"/>
</clipPath>
</defs>
</svg>
