<svg width="19" height="19" viewBox="0 0 19 19" fill="none" xmlns="http://www.w3.org/2000/svg">
<g clip-path="url(#clip0_384_653)">
<path d="M9.11267 0.736333L0.83844 7.83234C0.684779 7.94403 0.593825 8.12248 0.59375 8.31244V17.8124C0.593783 18.1404 0.859594 18.4062 1.1875 18.4062H17.8125C18.1404 18.4062 18.4062 18.1404 18.4062 17.8124V8.31244C18.4062 8.13062 18.3229 7.95884 18.1801 7.84626L9.88849 0.736333C9.66908 0.548196 9.33815 0.542965 9.11267 0.736333ZM9.49768 1.9679L16.821 8.24286L9.5 12.95L2.17902 8.24286L9.49768 1.9679ZM1.78125 9.40021L7.12848 12.8375L1.78125 16.6574V9.40021ZM17.2188 9.40021V16.6574L11.8715 12.8375L17.2188 9.40021ZM8.20465 13.5298L9.17877 14.156C9.37443 14.2819 9.62557 14.2819 9.82123 14.156L10.7965 13.5298L15.9594 17.2187H3.04065L8.20465 13.5298Z" fill="#0984E3"/>
</g>
<defs>
<clipPath id="clip0_384_653">
<rect width="19" height="19" fill="white"/>
</clipPath>
</defs>
</svg>
