<svg width="17" height="17" viewBox="0 0 17 17" fill="none" xmlns="http://www.w3.org/2000/svg">
<path d="M11.5607 16.9641V11.4012C11.6241 11.3679 11.6633 11.3268 11.6937 11.3333C12.8393 11.5743 13.3702 10.9857 13.6059 9.93293C13.6921 9.54823 13.8872 9.18789 14.0608 8.74548H11.5391C11.5391 8.06199 11.5366 7.42722 11.5391 6.79246C11.5404 6.40134 11.7444 6.20001 12.1271 6.19488C12.5706 6.18847 13.0129 6.1936 13.5096 6.1936V3.6366C12.0967 3.66994 10.6166 3.33268 9.41408 4.51372C8.20772 5.69733 8.55746 7.23872 8.4827 8.72753H6.5211V11.3025H8.46369V16.8717C8.44595 16.8871 8.41554 16.941 8.38513 16.941C6.33735 16.9474 4.28958 16.9897 2.24308 16.9384C1.15076 16.9115 0.398055 15.9933 0.390451 14.811C0.373978 12.204 0.382849 9.59824 0.382849 6.99122C0.382849 5.58064 0.373978 4.17134 0.382849 2.76075C0.391719 1.41172 1.22806 0.549978 2.55607 0.546131C6.50462 0.535872 10.4519 0.537155 14.4005 0.546131C15.7703 0.548696 16.6041 1.40274 16.6066 2.79281C16.613 6.72449 16.6142 10.6549 16.6066 14.5866C16.6028 16.187 15.8108 16.9602 14.2116 16.9653C13.3487 16.9679 12.4857 16.9653 11.562 16.9653L11.5607 16.9641Z" fill="#0984E3"/>
</svg>
