<svg width="18" height="18" viewBox="0 0 18 18" fill="none" xmlns="http://www.w3.org/2000/svg">
<path d="M8.99945 0.560303C5.58885 0.560303 2.8125 3.33666 2.8125 6.74725C2.8125 12.7484 8.65065 17.3107 8.65065 17.3107C8.75031 17.3903 8.87403 17.4336 9.00152 17.4336C9.12902 17.4336 9.25273 17.3903 9.35239 17.3107C9.35239 17.3107 15.1906 12.7484 15.1905 6.74725C15.1905 3.33666 12.41 0.560303 8.99945 0.560303ZM8.99945 1.68558C11.802 1.68558 14.0653 3.94465 14.0653 6.74725C14.0653 11.6567 9.6197 15.5355 9.0036 16.0609C8.39043 15.5382 3.93777 11.6586 3.93778 6.74725C3.93778 3.94465 6.19685 1.68558 8.99945 1.68558Z" fill="#0984E3"/>
<path d="M8.99862 3.93616C7.45198 3.93616 6.18751 5.20064 6.1875 6.74727C6.18749 8.29393 7.45197 9.56254 8.99862 9.56254C10.5453 9.56254 11.8139 8.29393 11.8139 6.74727C11.8139 5.20064 10.5453 3.93616 8.99862 3.93616ZM8.99862 5.06143C9.93726 5.06143 10.6886 5.80863 10.6886 6.74727C10.6886 7.68592 9.93726 8.43726 8.99862 8.43726C8.05997 8.43726 7.31277 7.68592 7.31278 6.74727C7.31278 5.80863 8.05997 5.06143 8.99862 5.06143Z" fill="#0984E3"/>
</svg>
