<svg width="18" height="17" viewBox="0 0 18 17" fill="none" xmlns="http://www.w3.org/2000/svg">
<g clip-path="url(#clip0_384_664)">
<path d="M17.5 16.4883C17.4166 16.4986 14.1482 16.5044 13.9081 16.4958C13.8946 16.4954 13.8812 16.4926 13.8633 16.4904C13.8615 16.4704 13.8591 16.4541 13.8587 16.4376C13.858 16.4089 13.8584 16.3803 13.8584 16.3516C13.8584 14.4001 13.859 12.4486 13.8577 10.4971C13.8575 10.1988 13.8346 9.9017 13.7747 9.60872C13.7189 9.33532 13.6358 9.07173 13.496 8.82927C13.3365 8.55282 13.1212 8.33643 12.8345 8.19693C12.6858 8.12456 12.5292 8.07727 12.3669 8.05206C12.1509 8.01849 11.9341 8.01557 11.7175 8.04646C11.3037 8.1055 10.9497 8.28768 10.6542 8.58591C10.4081 8.83426 10.2305 9.12771 10.1154 9.45959C10.0798 9.56243 10.0617 9.67017 10.0489 9.77838C10.0288 9.94929 10.0231 10.1211 10.0231 10.293C10.023 12.3191 10.0231 14.345 10.0226 16.3711C10.0226 16.4104 10.031 16.4511 10.0133 16.4887C9.94747 16.4982 6.46921 16.4995 6.38923 16.4902C6.37041 16.4718 6.37566 16.4478 6.37571 16.4257C6.37575 16.2709 6.37588 16.1162 6.37715 15.9615C6.37922 15.7036 6.38363 15.4458 6.3844 15.1879C6.38698 14.311 6.38834 13.4342 6.39037 12.5573C6.39169 11.9985 6.39342 11.4397 6.39486 10.881C6.39563 10.5944 6.39639 10.3079 6.39677 10.0213C6.39783 9.26196 6.40067 8.50256 6.3991 7.7432C6.3977 7.06125 6.39169 6.3793 6.38702 5.69735C6.38647 5.61714 6.38173 5.53703 6.37931 5.45682C6.37855 5.43131 6.37918 5.40575 6.37918 5.3758C6.39571 5.37236 6.41135 5.36732 6.42729 5.36616C6.44975 5.36448 6.47243 5.3656 6.49502 5.3656C7.62982 5.3656 8.76461 5.3656 9.8994 5.36569C9.93564 5.36569 9.97184 5.36694 10.0128 5.36771C10.0159 5.38841 10.0202 5.40446 10.0204 5.42059C10.0213 5.48935 10.021 5.55815 10.021 5.62691C10.021 6.02238 10.0208 6.41781 10.0213 6.81328C10.0213 6.84374 10.0158 6.87541 10.0286 6.90811C10.0587 6.89645 10.0673 6.87068 10.0805 6.85089C10.1755 6.70846 10.2747 6.5694 10.3823 6.43653C10.6573 6.09699 10.9763 5.80961 11.3522 5.58926C11.5878 5.45114 11.8373 5.34624 12.0978 5.26771C12.3147 5.20231 12.5364 5.15915 12.7607 5.13304C12.9824 5.10722 13.2054 5.10033 13.4285 5.10601C13.5978 5.11036 13.7667 5.1197 13.935 5.14147C14.2861 5.18691 14.6278 5.26926 14.9584 5.39964C15.3516 5.55467 15.7081 5.77037 16.0262 6.05143C16.3116 6.30353 16.5497 6.59599 16.7477 6.92279C16.9996 7.33865 17.1731 7.78756 17.2922 8.25889C17.3667 8.5532 17.4172 8.85208 17.4514 9.15413C17.4878 9.47633 17.5018 9.79934 17.5018 10.1233C17.5016 12.2067 17.5017 14.29 17.5016 16.3733C17.5016 16.4101 17.5006 16.4469 17.5 16.4883Z" fill="#0984E3"/>
<path d="M0.715103 5.37515C0.797119 5.36259 4.27453 5.36259 4.3529 5.37416C4.3549 5.38879 4.35837 5.40493 4.35909 5.42119C4.36019 5.44692 4.35952 5.47274 4.35952 5.49856C4.35952 9.12001 4.35952 12.7414 4.35952 16.3629V16.4858C4.33875 16.4899 4.32306 16.4944 4.30709 16.4957C4.28746 16.4973 4.26758 16.4962 4.24783 16.4962C3.10761 16.4962 1.96743 16.4962 0.827213 16.4961C0.793813 16.4961 0.760413 16.495 0.72341 16.4943C0.720189 16.4731 0.716332 16.4569 0.715527 16.4406C0.714297 16.4149 0.715103 16.389 0.715103 16.3633C0.715103 12.7418 0.715103 9.1204 0.715103 5.49894V5.37519V5.37515Z" fill="#0984E3"/>
<path d="M2.52482 3.84629C2.27775 3.84831 2.0353 3.81759 1.8001 3.73829C1.2176 3.54186 0.810142 3.15995 0.603554 2.5681C0.514755 2.31363 0.487586 2.05051 0.504964 1.78129C0.519291 1.55892 0.567441 1.34563 0.65484 1.14146C0.798401 0.806142 1.02394 0.541089 1.32547 0.342988C1.57033 0.182106 1.8394 0.0860678 2.12656 0.035725C2.33111 -0.000203373 2.53681 -0.00717391 2.74217 0.00590661C3.13759 0.031121 3.50702 0.141961 3.83407 0.377927C4.12026 0.584375 4.3268 0.854548 4.45659 1.18466C4.58014 1.49889 4.62965 1.82621 4.58752 2.16178C4.51199 2.76357 4.22304 3.23068 3.70763 3.54599C3.49787 3.67435 3.26953 3.75416 3.02963 3.80214C2.86276 3.83553 2.69423 3.84586 2.52482 3.84629Z" fill="#0984E3"/>
</g>
<defs>
<clipPath id="clip0_384_664">
<rect width="17" height="16.5" fill="white" transform="translate(0.5)"/>
</clipPath>
</defs>
</svg>
