<svg width="17" height="17" viewBox="0 0 17 17" fill="none" xmlns="http://www.w3.org/2000/svg">
<path d="M16.2596 8.76213C16.2596 9.76621 16.2761 10.769 16.2558 11.7731C16.2 14.5442 14.3841 16.6947 11.6673 16.8845C9.31667 17.0487 6.93817 17.0333 4.58627 16.8807C2.1292 16.7217 0.266434 14.8379 0.113104 12.3604C-0.0338894 9.97908 -0.0427597 7.57339 0.116906 5.19463C0.291777 2.58889 2.15454 0.758978 4.72819 0.605096C6.99772 0.469167 9.29006 0.46019 11.5583 0.605096C14.3449 0.78206 16.1988 2.91589 16.257 5.75117C16.2773 6.75397 16.2608 7.75805 16.2596 8.76213ZM8.11411 15.4227C9.08605 15.4227 10.0567 15.4316 11.0286 15.4214C13.1955 15.397 14.7085 13.9018 14.7352 11.7244C14.7592 9.73671 14.7592 7.74907 14.7352 5.76271C14.7098 3.64042 13.2259 2.12725 11.1338 2.09903C9.1494 2.07082 7.16372 2.06954 5.17931 2.09903C3.07832 2.12981 1.59571 3.63401 1.56783 5.75245C1.54249 7.73881 1.54376 9.72773 1.56783 11.7141C1.59318 13.8967 3.09986 15.3944 5.26421 15.4227C6.2146 15.4342 7.16499 15.4252 8.11538 15.4252L8.11411 15.4227Z" fill="#0984E3"/>
<path d="M8.12234 4.64966C10.3437 4.63427 12.2039 6.5065 12.2014 8.75575C12.2001 10.9896 10.3919 12.8311 8.18063 12.8503C5.95165 12.8708 4.10156 11.0114 4.10156 8.75062C4.10156 6.53087 5.93011 4.66505 8.12234 4.64966ZM8.1705 6.19746C6.78419 6.18592 5.62852 7.34516 5.62599 8.75062C5.62345 10.1356 6.73351 11.2833 8.09953 11.3089C9.49597 11.3346 10.658 10.1984 10.6757 8.79037C10.6935 7.38235 9.5606 6.21028 8.1705 6.19746Z" fill="#0984E3"/>
<path d="M12.4998 5.09335C12.2591 4.75866 11.9714 4.52399 12.0069 4.3637C12.055 4.14954 12.3541 3.9931 12.5454 3.81229C12.7089 3.99823 12.9915 4.17776 13.0029 4.37267C13.013 4.56246 12.7431 4.76635 12.4998 5.09335Z" fill="#0984E3"/>
</svg>
