<svg width="24" height="29" viewBox="0 0 24 29" fill="none" xmlns="http://www.w3.org/2000/svg">
<g clip-path="url(#clip0_410_1319)">
<path d="M2.96701 13.0314C2.96701 9.19862 2.96781 5.36585 2.96621 1.53309C2.96581 0.895485 3.23417 0.416389 3.81855 0.147046C4.01761 0.055279 4.25513 0.00562146 4.47502 0.00562146C9.25379 -0.00192648 14.0322 0.000457076 18.8109 5.98162e-05C19.2527 5.98162e-05 19.6308 0.145457 19.9473 0.455717C21.1424 1.62883 22.3404 2.79916 23.5368 3.97107C23.8465 4.27458 24.0003 4.64125 24.0003 5.07466C23.9995 11.5619 24.0007 18.0492 23.9983 24.5364C23.9979 25.4307 23.3678 26.0321 22.439 26.0325C17.5469 26.0341 12.6547 26.0333 7.76261 26.0333C6.68797 26.0333 5.61294 26.0131 4.53911 26.0393C3.64472 26.0611 2.955 25.3763 2.959 24.4697C2.97743 20.6572 2.96701 16.8443 2.96701 13.0314ZM18.293 1.17833C18.1805 1.17833 18.0952 1.17833 18.0095 1.17833C13.5379 1.17833 9.06634 1.17833 4.59478 1.17833C4.20747 1.17833 4.14779 1.23832 4.14779 1.6324C4.14739 3.84991 4.14739 6.06742 4.14739 8.28492C4.14739 13.6666 4.14739 19.0483 4.14779 24.43C4.14779 24.7907 4.21788 24.8658 4.55473 24.8658C10.5079 24.8662 16.4614 24.8662 22.4145 24.8658C22.7346 24.8658 22.8183 24.7831 22.8183 24.4653C22.8187 18.2498 22.8183 12.0339 22.8227 5.81833C22.8227 5.6495 22.7682 5.60858 22.606 5.60938C21.4048 5.61533 20.2032 5.61335 19.002 5.61216C18.5097 5.61176 18.2983 5.39922 18.2975 4.90702C18.2959 3.74861 18.2947 2.5902 18.2938 1.43179C18.293 1.35392 18.293 1.27646 18.293 1.17833ZM22.3336 4.43547C21.3683 3.49158 20.4423 2.58662 19.4898 1.65544C19.4898 2.61324 19.4898 3.52058 19.4898 4.43547C20.4271 4.43547 21.3467 4.43547 22.3336 4.43547Z" fill="#2691D8"/>
<path d="M0.000100134 15.8947C0.000100134 12.0485 -0.000300401 8.2022 0.000500668 4.35592C0.000500668 3.65118 0.369393 3.11369 1.01545 2.8952C1.17006 2.84316 1.34189 2.8225 1.50571 2.82131C1.81051 2.81892 2.04883 3.05609 2.07166 3.35602C2.09409 3.65238 1.88862 3.91695 1.59142 3.97416C1.20731 4.04844 1.17567 4.08499 1.17567 4.46318C1.17527 12.0961 1.17527 19.7291 1.17527 27.3621C1.17527 27.7351 1.26098 27.8217 1.63148 27.8217C7.53855 27.8217 13.4456 27.8217 19.3527 27.8217C19.7216 27.8217 19.7629 27.7859 19.8281 27.4157C19.8786 27.1289 20.1558 26.914 20.449 26.9342C20.7466 26.9549 20.9821 27.1968 20.9949 27.4955C21.0289 28.2797 20.3737 28.9602 19.5482 28.998C19.4949 29.0004 19.4412 29 19.388 29C13.454 29 7.52053 29.0004 1.58662 29C0.779139 29 0.185547 28.5415 0.0269359 27.7887C-0.001502 27.6544 0.000901202 27.5126 0.000901202 27.374C0.000100133 23.5476 0.000100134 19.7212 0.000100134 15.8947Z" fill="#2691D8"/>
<path d="M13.2804 15.5044C15.1161 15.5048 16.9513 15.5005 18.787 15.5116C18.954 15.5128 19.1551 15.5688 19.2812 15.6709C19.6249 15.9494 19.4887 16.5143 19.0625 16.641C18.9564 16.6724 18.8386 16.6759 18.7265 16.6763C15.1225 16.6779 11.5181 16.6779 7.91407 16.6767C7.7879 16.6767 7.65853 16.6787 7.53597 16.6537C7.25119 16.5961 7.07095 16.3498 7.08256 16.0594C7.09378 15.7837 7.29444 15.5592 7.57522 15.5163C7.65372 15.5044 7.73463 15.5048 7.81474 15.5048C9.63637 15.504 11.4584 15.504 13.2804 15.5044Z" fill="#2691D8"/>
<path d="M13.2799 20.3112C11.431 20.3112 9.58177 20.3116 7.73291 20.3108C7.34679 20.3104 7.09766 20.097 7.08084 19.759C7.06482 19.4352 7.30394 19.1671 7.63077 19.1452C7.69726 19.1408 7.76415 19.1432 7.83104 19.1432C11.4755 19.1432 15.12 19.1428 18.7648 19.1452C18.8826 19.1452 19.0075 19.1575 19.1161 19.1984C19.3704 19.2942 19.507 19.5592 19.4625 19.8261C19.4185 20.0895 19.199 20.2889 18.9274 20.3084C18.8545 20.3136 18.7808 20.3116 18.7071 20.3116C16.8979 20.3112 15.0891 20.3112 13.2799 20.3112Z" fill="#2691D8"/>
<path d="M13.2678 13.0316C11.4325 13.0316 9.59689 13.0324 7.76164 13.0312C7.33147 13.0308 7.07072 12.7952 7.08034 12.4254C7.08754 12.1497 7.28941 11.9169 7.56538 11.876C7.6571 11.8625 7.75163 11.8645 7.84496 11.8641C11.4626 11.8637 15.0798 11.8637 18.6974 11.8641C18.7775 11.8641 18.858 11.8621 18.9373 11.8696C19.2442 11.8986 19.466 12.1378 19.4697 12.4385C19.4733 12.74 19.2578 12.9871 18.9542 13.0237C18.8753 13.0332 18.7944 13.0308 18.7142 13.0308C16.8982 13.0316 15.083 13.0316 13.2678 13.0316Z" fill="#2691D8"/>
<path d="M10.1928 9.38777C9.35248 9.38737 8.51216 9.39055 7.67224 9.38578C7.37184 9.38419 7.13392 9.18238 7.08906 8.91225C7.0402 8.61668 7.1936 8.35052 7.47798 8.25399C7.55168 8.22896 7.63459 8.22101 7.71309 8.22101C9.3669 8.21903 11.0207 8.21863 12.6745 8.22022C13.0586 8.22062 13.3158 8.45937 13.3162 8.80459C13.3166 9.14822 13.0578 9.38618 12.6733 9.38697C11.8466 9.38936 11.0195 9.38777 10.1928 9.38777Z" fill="#2691D8"/>
</g>
<defs>
<clipPath id="clip0_410_1319">
<rect width="24" height="29" fill="white"/>
</clipPath>
</defs>
</svg>
