<svg width="30" height="30" viewBox="0 0 30 30" fill="none" xmlns="http://www.w3.org/2000/svg">
<g clip-path="url(#clip0_410_1326)">
<path d="M18.0105 30C17.5145 29.5116 17.4954 28.888 17.5299 28.2561C17.5405 28.0658 17.4755 27.985 17.3 27.9246C16.9935 27.8187 16.7 27.6757 16.3953 27.5638C16.3326 27.5409 16.2237 27.5597 16.1729 27.6028C15.9111 27.8251 15.6691 28.0703 15.4058 28.2903C15.0304 28.6034 14.74 28.6308 14.3606 28.3173C13.8707 27.9126 13.4059 27.4744 12.9547 27.0265C12.5742 26.6489 12.2116 26.2505 11.872 25.8357C11.5583 25.4527 11.565 25.1764 11.8607 24.7863C12.0677 24.513 12.3003 24.2588 12.5294 24.0035C12.6068 23.9172 12.6222 23.8451 12.5798 23.7362C12.4667 23.4453 12.3623 23.1505 12.2653 22.8539C12.2289 22.7421 12.1729 22.6978 12.0542 22.6918C11.7176 22.6741 11.3802 22.6527 11.0454 22.6155C10.4631 22.551 10.1806 22.2525 10.1712 21.6694C10.1528 20.5326 10.1464 19.3954 10.1445 18.2582C10.1445 18.173 10.2009 18.0731 10.2595 18.0052C10.6187 17.5903 11.0954 17.4935 11.6169 17.516C11.8085 17.5243 12.0471 17.5731 12.1804 17.4815C12.3044 17.3962 12.3176 17.1492 12.3792 16.9731C12.4513 16.767 12.5178 16.5586 12.5971 16.3555C12.6395 16.247 12.6155 16.1749 12.5373 16.0912C12.307 15.8449 12.0786 15.596 11.8645 15.3358C11.5936 15.0077 11.5684 14.7062 11.8528 14.3886C12.4393 13.7335 13.052 13.1012 13.6663 12.4716C13.888 12.2445 14.1363 12.0414 14.3873 11.8465C14.7378 11.5743 15.015 11.5796 15.3505 11.8623C15.6229 12.0913 15.8833 12.335 16.1414 12.5801C16.2161 12.6511 16.2766 12.6661 16.3713 12.6286C16.7136 12.4923 17.0577 12.3594 17.4041 12.234C17.5055 12.1972 17.5269 12.1409 17.5307 12.0403C17.5457 11.6667 17.5446 11.2894 17.6025 10.9218C17.6787 10.4386 18.0796 10.1514 18.485 10.1563C19.5842 10.1698 20.6839 10.1537 21.7832 10.1721C22.243 10.1796 22.5241 10.4409 22.5973 10.9023C22.6571 11.277 22.6766 11.6588 22.7014 12.0384C22.7097 12.1634 22.7491 12.2235 22.8716 12.2621C23.1635 12.3541 23.4524 12.457 23.7361 12.5707C23.8619 12.6211 23.9386 12.5918 24.0332 12.5062C24.2876 12.276 24.5453 12.0478 24.8169 11.8383C25.1716 11.5646 25.4549 11.5477 25.8046 11.8326C26.2491 12.1946 26.674 12.5835 27.0805 12.9879C27.5227 13.4275 27.9495 13.8848 28.3537 14.3593C28.6599 14.719 28.6396 15.0043 28.3346 15.3662C28.1136 15.6287 27.8792 15.8806 27.6399 16.1269C27.5486 16.2207 27.5246 16.2954 27.5798 16.4201C27.7165 16.728 27.8413 17.0418 27.9611 17.3568C28.0062 17.4751 28.0753 17.5096 28.1982 17.5149C28.554 17.5299 28.9094 17.5539 29.2637 17.5881C29.6957 17.6297 29.8757 17.7991 29.9452 18.2259C29.9771 18.4227 30.0004 18.6235 29.9985 18.8221C29.9887 19.8336 29.9902 20.8457 29.9455 21.8557C29.9234 22.3572 29.74 22.5161 29.2377 22.5945C28.8804 22.6501 28.5179 22.6726 28.1572 22.703C28.0438 22.7128 27.987 22.759 27.9442 22.8682C27.824 23.1761 27.6936 23.4809 27.5527 23.7801C27.5035 23.8845 27.5167 23.9442 27.5922 24.0242C27.8413 24.287 28.0892 24.5517 28.3244 24.8269C28.6306 25.185 28.6535 25.491 28.3466 25.8518C27.9344 26.3365 27.4971 26.8013 27.0486 27.2526C26.6792 27.6239 26.2863 27.9738 25.8873 28.3135C25.5187 28.627 25.211 28.6206 24.8462 28.3124C24.5791 28.0868 24.3218 27.8491 24.0697 27.6073C23.972 27.5135 23.8968 27.4812 23.7631 27.5484C23.5125 27.6749 23.2503 27.7785 22.9914 27.8874C22.7814 27.976 22.6905 28.1266 22.6958 28.3567C22.7048 28.746 22.6586 29.129 22.5105 29.495C22.3993 29.7695 22.2197 29.9309 21.9057 29.9366C21.6322 29.9418 21.3594 29.9771 21.0867 29.9989C20.0618 30 19.0361 30 18.0105 30ZM28.2068 19.4296C27.9634 19.4296 27.7327 19.4416 27.5035 19.4273C26.908 19.3905 26.597 19.1409 26.4095 18.571C26.3374 18.3517 26.2757 18.1276 26.1848 17.9158C26 17.486 25.8012 17.0621 25.6029 16.6382C25.3966 16.1978 25.4383 15.7916 25.7539 15.4173C25.9264 15.2131 26.098 15.0081 26.2232 14.859C25.9226 14.5316 25.6337 14.2167 25.3463 13.9032C25.0551 14.1408 24.776 14.3702 24.495 14.5973C24.2849 14.7674 24.0625 14.7824 23.8116 14.6773C23.0346 14.3518 22.2524 14.0383 21.4729 13.7192C21.0344 13.5397 20.8038 13.2105 20.7853 12.7393C20.776 12.4983 20.7838 12.2565 20.7838 12.0008C20.5348 12.0008 20.3232 12.0008 20.1117 12.0008C19.8949 12.0008 19.6785 12.0008 19.4464 12.0008C19.4464 12.1664 19.4467 12.3091 19.4464 12.4514C19.4441 13.206 19.1871 13.5476 18.4805 13.8056C17.977 13.9891 17.4856 14.2069 16.9901 14.4119C16.7594 14.5072 16.5313 14.609 16.3025 14.7081C16.1395 14.7787 15.9828 14.7648 15.8401 14.6623C15.6428 14.5204 15.4475 14.3751 15.2574 14.2242C15.1274 14.1209 15.0075 14.0053 14.9121 13.9212C14.5744 14.2568 14.2535 14.5756 13.9263 14.9003C14.0852 15.0817 14.2535 15.2825 14.4308 15.4747C14.7524 15.8239 14.8178 16.1783 14.5958 16.6307C14.2832 17.2675 14.0341 17.9354 13.7662 18.5935C13.5284 19.1777 13.1783 19.4266 12.5505 19.4348C12.372 19.4371 12.1939 19.4352 12.017 19.4352C12.017 19.8895 12.017 20.313 12.017 20.774C12.2747 20.774 12.5238 20.7639 12.7718 20.7763C13.2132 20.7981 13.5228 21.0181 13.6948 21.4277C13.9894 22.1301 14.2524 22.8479 14.5894 23.5294C14.8531 24.0629 14.7145 24.4548 14.3339 24.8351C14.1806 24.9883 14.045 25.1588 13.8823 25.3427C14.2096 25.6416 14.5221 25.9273 14.8494 26.2265C14.9301 26.1563 15.0477 26.0553 15.1634 25.9528C15.8307 25.3604 16.15 25.3352 16.9544 25.7234C17.4698 25.9723 18.0127 26.1653 18.5432 26.383C18.6356 26.421 18.7295 26.454 18.8205 26.4953C19.2052 26.6699 19.4032 26.9785 19.4295 27.3907C19.4464 27.6558 19.4325 27.9227 19.4325 28.1964C19.6861 28.1964 19.8983 28.1964 20.1106 28.1964C20.3266 28.1964 20.543 28.1964 20.7752 28.1964C20.7752 27.9539 20.7651 27.7354 20.7771 27.518C20.8139 26.8565 21.0213 26.62 21.6502 26.3917C22.2066 26.1897 22.7476 25.9453 23.2946 25.7182C23.4501 25.6536 23.6012 25.5774 23.7586 25.5177C24.0791 25.3964 24.3744 25.4531 24.6343 25.6727C24.7869 25.8015 24.9293 25.9423 25.0758 26.0782C25.1611 26.1574 25.2452 26.2374 25.3155 26.3035C25.6596 25.9637 25.9868 25.6404 26.3253 25.3059C26.1435 25.1152 25.9587 24.9222 25.7746 24.7289C25.4541 24.3929 25.3816 24.0125 25.5901 23.5943C25.9388 22.8949 26.2468 22.1804 26.4914 21.437C26.6353 21 26.9689 20.7782 27.4333 20.7706C27.688 20.7665 27.9427 20.7699 28.2064 20.7699C28.2068 20.3134 28.2068 19.8906 28.2068 19.4296Z" fill="white" stroke="#2691D8"/>
<path d="M-0.00082604 10.3895C0.0209643 10.1991 0.0401247 10.008 0.065672 9.81805C0.134424 9.30483 0.337675 9.1126 0.857637 9.06755C1.26827 9.03189 1.67891 8.9981 2.08954 8.96393C2.31984 8.94478 2.4705 8.85205 2.55615 8.61065C2.69779 8.21156 2.87813 7.82561 3.0562 7.44041C3.11106 7.32177 3.09265 7.25307 3.00736 7.16371C2.68389 6.82507 2.35704 6.48868 2.05272 6.13314C1.70032 5.72166 1.67778 5.43295 2.02605 5.01134C2.44194 4.50712 2.89315 4.02882 3.35638 3.56666C3.88649 3.03842 4.42975 2.52069 4.9993 2.036C5.42233 1.67558 5.72777 1.70299 6.1508 2.06866C6.5002 2.37089 6.83419 2.69114 7.16744 3.01101C7.25911 3.09924 7.32861 3.10975 7.4447 3.05644C7.83617 2.87736 8.22877 2.69677 8.63302 2.5496C8.85205 2.46963 8.93884 2.32922 8.96063 2.12385C8.99181 1.83252 9.01398 1.54005 9.04215 1.24796C9.06056 1.05536 9.07296 0.861261 9.10602 0.671291C9.16501 0.331145 9.37464 0.108511 9.71465 0.078101C10.1993 0.0345504 10.6873 0.0120242 11.1738 0.00676809C12.1931 -0.00374413 13.2127 0.00526635 14.2316 1.02355e-05C14.3496 -0.000740637 14.4183 0.0398065 14.4972 0.126532C14.7741 0.43026 14.8887 0.786174 14.888 1.18902C14.8872 1.53254 14.894 1.87644 14.8887 2.21997C14.8872 2.32434 14.9214 2.37277 15.0187 2.41144C15.5466 2.62131 16.0729 2.83568 16.5963 3.05719C16.709 3.10487 16.7755 3.08084 16.8585 3.00162C17.1929 2.6825 17.5257 2.36113 17.8751 2.05853C18.2478 1.73565 18.5221 1.73227 18.9147 2.04013C19.1795 2.24775 19.4373 2.46813 19.6747 2.70616C20.3765 3.40897 21.0674 4.12305 21.7606 4.83451C21.8256 4.90133 21.88 4.97905 21.9323 5.05639C22.158 5.3894 22.1644 5.7502 21.9157 6.06594C21.7313 6.30058 21.5107 6.50707 21.306 6.72595C21.1993 6.84009 21.0937 6.95497 20.9859 7.0676C20.851 7.20877 20.8379 7.35631 20.9359 7.52714C21.0648 7.75202 21.1662 7.99268 21.1245 8.25736C21.102 8.40003 21.0588 8.55546 20.9757 8.66921C20.6515 9.11411 20.0053 9.16704 19.6307 8.77058C19.1934 8.30767 18.9304 7.73888 18.7603 7.13255C18.7249 7.00753 18.7655 6.81831 18.8437 6.71244C19.0942 6.37192 19.3783 6.05618 19.651 5.73217C19.7111 5.66084 19.778 5.59551 19.837 5.53244C19.3411 5.04513 18.8489 4.56156 18.3376 4.05923C18.1727 4.22217 17.9769 4.41101 17.7865 4.60436C17.1707 5.22834 16.8855 5.28953 16.0924 4.9126C15.358 4.56344 14.6122 4.24995 13.83 4.02018C13.2571 3.85199 13.1147 3.64062 13.0952 3.04367C13.0884 2.83756 13.0869 2.63144 13.0854 2.42533C13.0839 2.22635 13.085 2.02774 13.085 1.816C12.3648 1.816 11.6562 1.816 10.9259 1.816C10.9259 1.96692 10.9304 2.11484 10.9248 2.26277C10.9142 2.54922 10.9131 2.83756 10.8808 3.12214C10.8368 3.50734 10.6163 3.78028 10.262 3.92933C10.0212 4.0307 9.76236 4.08964 9.52079 4.18988C8.97941 4.41439 8.44405 4.65392 7.9053 4.88519C7.7276 4.9614 7.55027 5.04062 7.36693 5.10031C7.03143 5.20919 6.71923 5.14199 6.45624 4.9126C6.18837 4.6787 5.93553 4.42753 5.68006 4.17974C5.63197 4.13281 5.60229 4.06711 5.57073 4.02018C5.04326 4.5518 4.55297 5.04588 4.04316 5.56022C4.25317 5.76596 4.4846 5.98334 4.70475 6.21161C4.96023 6.47629 5.20368 6.7635 5.1353 7.16259C5.09397 7.40437 5.00982 7.64803 4.89861 7.86728C4.565 8.52655 4.27346 9.19895 4.06382 9.90928C3.84592 10.6478 3.53747 10.8764 2.76842 10.9192C2.59372 10.929 2.41827 10.9226 2.2432 10.9233C2.10607 10.9237 1.96932 10.9233 1.81604 10.9233C1.81604 11.64 1.81604 12.3477 1.81604 13.0817C1.95354 13.0817 2.0948 13.0802 2.23644 13.0821C2.5554 13.0862 2.87399 13.087 3.19258 13.0979C3.5679 13.1106 3.83427 13.2852 3.95787 13.6486C4.07622 13.9974 4.17202 14.3548 4.30915 14.6957C4.50902 15.1935 4.73857 15.6794 4.95234 16.1716C5.00681 16.2973 5.05716 16.4254 5.09773 16.556C5.20105 16.8871 5.13643 17.1897 4.90425 17.4454C4.66531 17.709 4.41284 17.9605 4.16638 18.2173C4.12355 18.262 4.0811 18.307 4.04316 18.3468C4.53982 18.8413 5.02973 19.3286 5.52865 19.8253C5.80254 19.576 6.09295 19.3128 6.38148 19.0482C6.73914 18.7204 7.13813 18.6438 7.57018 18.8766C7.94851 19.0804 8.33585 19.2768 8.68299 19.5268C9.13382 19.852 9.18867 20.2274 8.92005 20.6877C8.68938 21.083 8.26108 21.2216 7.79597 21.0489C7.72572 21.0229 7.65208 20.9985 7.59122 20.9569C7.36392 20.8007 7.17382 20.8525 6.99161 21.038C6.77258 21.2606 6.54679 21.4769 6.3225 21.6942C6.26426 21.7505 6.2034 21.8046 6.13953 21.8545C5.73979 22.1669 5.34419 22.1872 4.96436 21.8474C4.38278 21.3274 3.82112 20.7838 3.26885 20.2323C2.84957 19.8137 2.44006 19.3823 2.05949 18.9284C1.70708 18.5083 1.72324 18.2526 2.08315 17.8344C2.3762 17.4938 2.68953 17.1706 3.00173 16.847C3.08401 16.7617 3.09903 16.6949 3.05245 16.5853C2.83342 16.0679 2.61965 15.5483 2.41414 15.0257C2.36906 14.9116 2.30932 14.8808 2.19361 14.8827C1.84346 14.8879 1.49331 14.8812 1.14317 14.8789C0.767095 14.8767 0.430096 14.7708 0.149828 14.5095C0.10512 14.4678 0.0491414 14.4378 -0.00195312 14.4025C-0.00082604 13.0641 -0.00082604 11.7268 -0.00082604 10.3895Z" fill="white" stroke="#2691D8"/>
<path d="M7.13867 11.9384C7.15783 9.52205 8.96117 7.66927 10.946 7.26981C12.5656 6.9443 14.0052 7.33213 15.2319 8.45731C15.4607 8.66718 15.6267 8.90145 15.6125 9.23522C15.5869 9.83929 15.1342 10.202 14.5545 10.0281C14.2927 9.94967 14.0364 9.80513 13.817 9.63881C12.0141 8.2711 9.48564 9.22883 9.06411 11.4499C8.90068 12.3108 9.13136 13.0771 9.62465 13.7863C9.7862 14.0187 9.93647 14.2713 10.0296 14.5364C10.163 14.9152 10.0229 15.2741 9.73059 15.463C9.41952 15.6642 8.95365 15.6578 8.67489 15.4209C8.01667 14.8611 7.59401 14.1437 7.37761 13.3166C7.2604 12.8668 7.21607 12.3983 7.13867 11.9384Z" fill="white" stroke="#2691D8"/>
<path d="M16.0215 20.0811C15.9498 18.0189 17.8098 16.0478 19.9284 16.0058C22.2896 15.9592 24.1493 17.7369 24.1613 20.0875C24.1737 22.4884 22.237 24.1659 20.123 24.1546C17.7321 24.1422 15.9637 22.2241 16.0215 20.0811ZM20.1023 22.315C21.359 22.3165 22.3219 21.3584 22.3272 20.1014C22.3325 18.7908 21.3951 17.9483 19.9806 17.9032C18.7472 17.8638 17.8677 19.0464 17.8711 20.0383C17.876 21.2822 18.8731 22.3135 20.1023 22.315Z" fill="white" stroke="#2691D8"/>
</g>
<defs>
<clipPath id="clip0_410_1326">
<rect width="30" height="30" fill="white"/>
</clipPath>
</defs>
</svg>
