<svg width="18" height="17" viewBox="0 0 18 17" fill="none" xmlns="http://www.w3.org/2000/svg">
<path d="M13.9755 5.46615C13.9556 5.82619 13.9333 6.28122 13.9025 6.73553C13.8958 6.83507 13.9368 6.87321 14.0262 6.8912C14.2772 6.94157 14.5102 6.87273 14.7413 6.79237C14.8034 6.77079 14.864 6.74464 14.9242 6.71801C15.3157 6.54435 15.672 6.63406 15.9916 6.87465C16.2897 7.0994 16.3106 7.45297 16.0614 7.72977C15.8718 7.94013 15.6228 8.0687 15.3617 8.17304C15.0794 8.28602 14.7917 8.3858 14.5065 8.49183C14.4797 8.5019 14.4538 8.51533 14.4287 8.52924C13.9869 8.77343 13.9092 9.10205 14.1477 9.53908C14.3659 9.93894 14.5813 10.3381 14.8638 10.7003C15.4114 11.4026 16.0696 11.9742 16.9307 12.2942C17.1685 12.3827 17.4197 12.4407 17.6684 12.4981C17.8863 12.5482 18.0076 12.6782 17.9996 12.8941C17.9899 13.1553 17.8364 13.3306 17.6222 13.4654C17.291 13.6739 16.9163 13.777 16.5379 13.8648C16.2688 13.9272 15.9955 13.9737 15.723 14.0207C15.6472 14.0339 15.6189 14.0723 15.6039 14.1364C15.5518 14.358 15.4993 14.5796 15.4444 14.8008C15.3781 15.068 15.2308 15.1862 14.9473 15.1637C14.6841 15.1428 14.4235 15.0915 14.1614 15.0577C13.6518 14.992 13.1377 14.9812 12.6515 15.1488C12.3568 15.2505 12.0688 15.4074 11.8213 15.5933C10.9174 16.2721 9.89053 16.5098 8.76549 16.4998C7.86034 16.4916 7.07941 16.2078 6.36608 15.6859C6.08482 15.4801 5.77821 15.2906 5.45521 15.1575C4.98164 14.9622 4.47055 14.9658 3.96443 15.0359C3.72715 15.0687 3.49235 15.1176 3.25531 15.1539C3.17431 15.1663 3.08984 15.1699 3.00809 15.1637C2.82647 15.15 2.6908 15.0639 2.64186 14.8893C2.5857 14.6895 2.54123 14.4866 2.49675 14.2841C2.44209 14.0351 2.44507 14.0299 2.18543 13.9833C1.70937 13.8979 1.23158 13.8142 0.785586 13.6264C0.583585 13.5412 0.393014 13.4228 0.213375 13.2983C0.0749807 13.2023 0.00516245 13.0531 0.000193179 12.8823C-0.00527302 12.6945 0.105542 12.5415 0.297356 12.5089C1.53843 12.2968 2.46147 11.6151 3.2086 10.6756C3.50651 10.3009 3.77088 9.90488 3.94604 9.4604C3.98406 9.36398 4.01437 9.26252 4.02928 9.16057C4.06009 8.95093 3.9771 8.76935 3.79547 8.66549C3.56987 8.53644 3.32712 8.43186 3.08288 8.33783C2.78298 8.22246 2.47613 8.12387 2.21301 7.93725C2.13027 7.87849 2.05051 7.8118 1.98417 7.73649C1.7541 7.47575 1.77472 7.13562 2.04654 6.91566C2.34569 6.67364 2.68335 6.58513 3.06226 6.73864C3.34228 6.8521 3.62677 6.94805 3.93859 6.91878C3.97139 6.91567 4.00393 6.90823 4.03648 6.90391C4.13463 6.89096 4.17214 6.84466 4.16643 6.74248C4.13438 6.168 4.10233 5.59304 4.08444 5.01808C4.06754 4.47431 4.09065 3.93173 4.20842 3.39635C4.34011 2.79644 4.64373 2.27593 5.02313 1.79716C5.79486 0.823305 6.82896 0.269933 8.07451 0.0782804C8.86736 -0.0438115 9.65896 -0.0282202 10.4404 0.162234C11.7749 0.487492 12.7735 1.23539 13.4555 2.39011C13.8011 2.97514 13.9566 3.60311 13.9735 4.26802C13.983 4.63526 13.9753 5.00297 13.9753 5.46543L13.9755 5.46615Z" fill="#0984E3"/>
</svg>
