<svg xmlns="http://www.w3.org/2000/svg">
	<symbol id="search" width="14" height="14" viewBox="0 0 14 14" fill="none">
	  <path d="M5.25 0.439453C2.59731 0.439453 0.437503 2.59842 0.4375 5.2511C0.437503 7.90379 2.59731 10.0636 5.25 10.0636C6.41988 10.0636 7.4928 9.64299 8.32788 8.94592L12.8165 13.4354C13.2299 13.8488 13.8503 13.2284 13.4369 12.8151L8.94739 8.32556C9.64239 7.49108 10.0616 6.41904 10.0616 5.2511C10.0616 2.59842 7.90269 0.439453 5.25 0.439453ZM5.25 1.31445C7.4298 1.31447 9.18664 3.0713 9.18664 5.2511C9.18664 7.43091 7.4298 9.1886 5.25 9.1886C3.0702 9.1886 1.3125 7.43091 1.3125 5.2511C1.3125 3.0713 3.0702 1.31447 5.25 1.31445Z" fill="white" />
	</symbol>
	<symbol id="arr" width="16" height="16" viewBox="0 0 16 16" fill="none">
		<path d="M9.52694 3.80476C9.2666 3.54441 8.84446 3.54441 8.58413 3.80476L5.32586 7.06622C4.8056 7.58702 4.8058 8.43089 5.32626 8.95142L8.58653 12.2116C8.84686 12.472 9.269 12.472 9.52934 12.2116C9.7897 11.9513 9.7897 11.5292 9.52934 11.2688L6.73893 8.47842C6.47853 8.21809 6.4786 7.79596 6.73893 7.53562L9.52694 4.74757C9.78729 4.48722 9.78729 4.06511 9.52694 3.80476Z" fill="#0984E3" />
	</symbol>
	<symbol id="arr-next" width="16" height="16" viewBox="0 0 16 16" fill="none">
 		<path d="M6.47306 12.1952C6.7334 12.4556 7.15554 12.4556 7.41587 12.1952L10.6741 8.93378C11.1944 8.41298 11.1942 7.56911 10.6737 7.04858L7.41347 3.78838C7.15314 3.52798 6.731 3.52798 6.47066 3.78838C6.2103 4.04871 6.2103 4.47084 6.47066 4.73118L9.26107 7.52158C9.52147 7.78191 9.5214 8.20404 9.26107 8.46438L6.47306 11.2524C6.21271 11.5128 6.21271 11.9349 6.47306 12.1952Z" fill="white" />
	</symbol>
</svg>


