<svg width="19" height="19" viewBox="0 0 19 19" fill="none" xmlns="http://www.w3.org/2000/svg">
<path d="M1.09126 5.10301C0.527714 7.80083 2.65198 11.0123 5.31985 13.6801C7.98775 16.348 11.1991 18.4723 13.897 17.9087C16.1157 17.4453 17.2484 16.2634 17.8859 15.2564C18.1058 14.9088 17.9948 14.4578 17.6651 14.2119L14.5433 11.8832C14.2066 11.6322 13.7367 11.6662 13.4398 11.9631L11.7827 13.6202C11.7827 13.6202 10.172 13.0966 8.03764 10.9623C5.9034 8.82805 5.37982 7.21733 5.37982 7.21733L7.03688 5.56027C7.33384 5.26331 7.36786 4.79341 7.11676 4.45677L4.78809 1.33487C4.54219 1.00522 4.09114 0.89419 3.74365 1.11414C2.73657 1.75161 1.55471 2.8843 1.09126 5.10301Z" stroke="#0984E3" stroke-width="1.5" stroke-linecap="round" stroke-linejoin="round"/>
</svg>
