<svg width="17" height="14" viewBox="0 0 17 14" fill="none" xmlns="http://www.w3.org/2000/svg">
<path d="M1.8424 0.745372C4.45407 3.21903 6.56013 4.26414 8.66746 4.14232C8.66746 3.81404 8.63958 3.47934 8.67253 3.15106C8.92723 0.595337 11.6745 -0.787036 13.7489 0.673561C14.3913 1.12623 14.8792 1.04544 15.4697 0.821031C15.7637 0.709466 16.0412 0.558149 16.3276 0.423502C16.3783 0.464538 16.429 0.505573 16.4797 0.546608C16.1033 1.06852 15.7269 1.59044 15.3303 2.14313C15.7979 2.02003 16.2731 1.89564 16.9295 1.72252C16.5379 2.1675 16.2984 2.54964 15.9614 2.79457C15.4241 3.18569 15.3101 3.66528 15.2632 4.30774C14.6815 12.1301 6.95929 15.4501 1.19107 12.1685C1.12137 12.1288 1.05547 12.0801 0.847656 11.9429C2.60778 11.9775 4.13094 11.6697 5.53118 10.5669C4.11573 10.2938 3.0741 9.6436 2.5837 8.23045C3.00567 8.20609 3.35669 8.18685 3.91045 8.15479C2.3366 7.50079 1.47998 6.49158 1.37861 4.86043C1.80818 4.95917 2.19214 5.04894 2.5761 5.13742C1.40775 3.80891 1.06561 2.41884 1.8462 0.746655L1.8424 0.745372Z" fill="#0984E3"/>
</svg>
