<svg width="18" height="12" viewBox="0 0 18 12" fill="none" xmlns="http://www.w3.org/2000/svg">
<path d="M8.98176 0.215959C10.8382 0.215959 12.6959 0.190312 14.5523 0.224935C15.8182 0.2493 16.4315 0.712228 16.7129 1.9638C17.2768 4.47208 17.2996 7.006 16.7154 9.51556C16.4163 10.8005 15.8144 11.2711 14.5092 11.2801C10.8382 11.3057 7.16589 11.3044 3.49485 11.2814C2.16177 11.2724 1.59281 10.7851 1.25447 9.47068C0.784343 7.64846 0.807149 5.78777 0.965547 3.93477C1.03778 3.09612 1.2342 2.2549 1.4775 1.44702C1.71573 0.655805 2.33918 0.244171 3.16031 0.236477C5.10164 0.221088 7.0417 0.231347 8.98303 0.231347C8.98303 0.226218 8.98303 0.219806 8.98303 0.214677L8.98176 0.215959ZM7.00876 2.71013V8.80642C8.70045 7.77541 10.3199 6.78672 12.0217 5.7493C10.2908 4.70034 8.68778 3.72832 7.00876 2.71013Z" fill="#0984E3"/>
</svg>
