<svg width="34" height="51" viewBox="0 0 34 51" fill="none" xmlns="http://www.w3.org/2000/svg">
<path d="M16.6917 36.6506C15.4374 40.0674 14.2224 43.379 12.9831 46.7538C12.3712 45.6572 11.79 44.6174 11.211 43.5776C10.6744 42.6142 10.1284 41.6555 9.60977 40.6819C9.45935 40.4 9.32696 40.3299 9.00812 40.4436C6.92429 41.1866 4.83184 41.907 2.74252 42.6329C2.63284 42.6711 2.52003 42.6976 2.32262 42.7536C3.83771 38.6188 5.33164 34.5423 6.82949 30.4534C5.66694 29.5741 4.63207 28.5904 3.73352 27.4696C1.69982 24.9322 0.474589 22.0505 0.108743 18.83C-0.803913 10.8071 4.10798 3.27961 11.8432 0.802113C20.6721 -2.02586 30.2844 2.8676 33.1532 11.6498C35.4352 18.6352 33.0059 26.1822 27.0615 30.5258C26.7701 30.7392 26.7019 30.8973 26.8304 31.2455C28.709 36.3258 30.5711 41.4117 32.4364 46.4967C32.4888 46.6401 32.5343 46.7857 32.6103 47.0123C30.2287 46.186 27.9122 45.383 25.5433 44.5613C24.3603 46.6837 23.1766 48.8068 21.9537 51C21.0622 48.5614 20.1974 46.1914 19.3286 43.8222C18.4661 41.4678 17.5981 39.1141 16.6917 36.6506ZM16.9815 31.328C25.0254 31.3124 31.5127 24.8683 31.4986 16.9086C31.4845 8.91375 24.9761 2.47818 16.9275 2.49999C8.95406 2.52179 2.48792 9.01578 2.50985 16.9818C2.531 24.8862 9.04494 31.3436 16.9815 31.328ZM18.3039 33.7798C19.678 37.5268 21.0379 41.2357 22.4246 45.0185C23.1045 43.8019 23.7407 42.6641 24.3783 41.5246C25.7532 41.9997 27.0811 42.4592 28.4708 42.939C27.1281 39.2784 25.8151 35.6973 24.4927 32.0913C22.5225 33.0462 20.4864 33.5867 18.3039 33.7798ZM8.98697 31.8273C8.1456 34.1256 7.32225 36.3757 6.47227 38.6966C7.79856 38.2395 9.03162 37.8282 10.2529 37.3827C10.5248 37.2838 10.6227 37.3648 10.7355 37.5774C10.9909 38.0588 11.2612 38.5323 11.5267 39.0082C11.8456 39.5798 12.166 40.15 12.5162 40.7762C13.3889 38.3937 14.2373 36.079 15.1045 33.7121C12.9079 33.4636 10.9008 32.8226 8.98697 31.8273Z" fill="white"/>
<path d="M22.9574 9C23.642 9.47499 24.3002 9.93074 25 10.4166C22.0597 15.6021 19.1291 20.7701 16.1638 26C13.7646 23.1777 11.3925 20.388 9 17.5732C9.58716 16.961 10.1517 16.3723 10.7532 15.746C12.4293 17.7153 14.0903 19.6671 15.7792 21.6532C18.177 17.426 20.5596 13.2264 22.9574 9Z" fill="white"/>
</svg>
