<svg width="36" height="41" viewBox="0 0 36 41" fill="none" xmlns="http://www.w3.org/2000/svg">
  <path d="M21.372 40.4925L21.3765 40.4924C21.5643 40.4925 21.7465 40.4944 21.9256 40.4964C22.3018 40.5004 22.6641 40.5043 23.0353 40.4895C23.5943 40.4668 24.1483 40.4516 24.6984 40.4365C26.0734 40.3988 27.4246 40.3617 28.7724 40.2095L28.7725 40.2095C31.224 39.9336 32.9642 38.2247 33.4392 35.8166L33.4396 35.8142C33.4725 35.6517 33.5169 35.4579 33.5946 35.2668C34.1126 33.992 34.633 32.719 35.1591 31.4469L35.1592 31.4466C35.4869 30.6558 35.5116 29.9144 35.1641 29.153L35.1639 29.1526C34.9539 28.6918 34.7876 28.2058 34.6692 27.7154M21.372 40.4925L14.65 1.30677C15.0465 0.230379 15.6294 -0.126183 16.7705 0.0381262C18.9438 0.351096 20.6891 1.65998 21.2136 4.00167C21.7404 6.36012 21.4506 8.64927 20.6442 10.906L20.1734 10.7377C20.1734 10.7377 20.1734 10.7378 20.1734 10.7378C19.8211 11.7234 19.5261 12.7285 19.2631 13.7324L19.2631 13.7326C19.1831 14.0386 19.1136 14.4412 19.3325 14.78C19.5536 15.1223 19.9521 15.2205 20.2703 15.2679C21.4075 15.4381 22.5608 15.5754 23.718 15.6436C24.5346 15.6921 25.3521 15.7144 26.1603 15.7366L26.2259 15.7384C27.0583 15.7612 27.8811 15.7844 28.7003 15.8358C29.8287 15.9071 30.9153 16.1121 31.9242 16.5719L31.9243 16.572C32.4274 16.8011 32.798 17.0922 33.0503 17.4401C33.3008 17.7855 33.4541 18.2135 33.4832 18.7506L33.4832 18.7508C33.5486 19.9497 33.9702 21.0031 34.6107 21.9575L34.6108 21.9577C35.2267 22.8744 35.5302 23.8645 35.4976 24.9576C35.48 25.5242 35.3785 25.8914 35.0274 26.1666L35.0273 26.1667C34.7225 26.4058 34.606 26.7202 34.5854 27.0135C34.5665 27.2814 34.627 27.542 34.6692 27.7154M21.372 40.4925C18.1529 40.5214 14.9415 40.4001 11.7397 40.0913L11.7396 40.0913M21.372 40.4925L11.7396 40.0913M34.6692 27.7154C34.6691 27.7152 34.6691 27.7149 34.669 27.7147L35.1548 27.5974L34.6692 27.7155C34.6692 27.7155 34.6692 27.7154 34.6692 27.7154ZM15.1193 1.47946C15.0808 1.58393 15.0424 1.68788 15.0041 1.79142C14.7107 2.58482 14.4264 3.35365 14.2195 4.14059L15.1193 1.47946ZM15.1193 1.47946C15.2993 0.990765 15.4903 0.754955 15.6887 0.63571C15.8862 0.516948 16.1829 0.458671 16.6993 0.533022C18.7009 0.821273 20.2535 2.00321 20.7257 4.11065L15.1193 1.47946ZM11.7396 40.0913C9.02258 39.8297 6.34633 39.4631 3.74429 38.7371C2.6444 38.4296 1.64084 38.1034 0.818044 37.44C0.581833 37.2493 0.49161 37.0807 0.500624 36.8654L0.500672 36.8642M11.7396 40.0913L0.500672 36.8642M0.500672 36.8642C0.506032 36.7282 0.51998 36.6375 0.536708 36.5782C0.546129 36.5448 0.554678 36.5275 0.559033 36.5201C0.578952 36.5114 0.64468 36.4929 0.807937 36.5048L0.808549 36.5049M0.500672 36.8642L0.808549 36.5049M0.808549 36.5049C1.69096 36.5686 2.57141 36.6759 3.43212 36.8435C4.58828 37.0689 5.75183 37.3104 6.91888 37.5525C8.61895 37.9053 10.3264 38.2596 12.0293 38.5682C14.2722 38.9748 16.5489 39.0922 18.8124 39.0209L18.8124 39.0209M0.808549 36.5049L18.8124 39.0209M18.8124 39.0209C21.5437 38.9346 24.2728 38.7946 26.9974 38.6188L26.9977 38.6188M18.8124 39.0209L26.9977 38.6188M26.9977 38.6188C27.9476 38.5568 28.8944 38.3692 29.7951 38.1291L29.7952 38.129M26.9977 38.6188L29.7952 38.129M29.7952 38.129C30.47 37.949 31.0113 37.645 31.3207 37.1207C31.6255 36.6041 31.6407 35.9809 31.5183 35.3115L31.5181 35.3108M29.7952 38.129L31.5181 35.3108M31.5181 35.3108C31.4671 35.0339 31.4339 34.7481 31.4076 34.4529L31.4075 34.4515M31.5181 35.3108L31.4075 34.4515M31.4075 34.4515C31.3404 33.7207 31.6015 33.1167 32.1493 32.5549L32.1498 32.5543M31.4075 34.4515L32.1498 32.5543M32.1498 32.5543C32.1762 32.5272 32.2028 32.4999 32.2295 32.4724C32.6322 32.0588 33.0736 31.6054 33.4292 31.0905L33.4292 31.0905M32.1498 32.5543L33.4292 31.0905M33.4292 31.0905C33.6703 30.7412 33.7981 30.3551 33.7535 29.9493C33.7095 29.5485 33.5051 29.1994 33.2187 28.904M33.4292 31.0905L31.9465 27.8004M31.9465 27.8004L31.9471 27.8009C32.0369 27.8757 32.1312 27.9522 32.228 28.0309C32.5543 28.2958 32.9093 28.5841 33.2187 28.904M31.9465 27.8004C31.8193 27.6949 31.7849 27.6373 31.7767 27.6204C31.7809 27.6013 31.8002 27.5441 31.8835 27.4321L31.4824 27.1335M31.9465 27.8004L33.0177 30.8064C33.3973 30.2565 33.3277 29.7345 32.8594 29.2516M33.2187 28.904L32.8594 29.2516M33.2187 28.904C33.2186 28.9038 33.2184 28.9037 33.2183 28.9035L32.8594 29.2516M32.8594 29.2516C32.5729 28.9555 32.2507 28.6937 31.9288 28.4322C31.8279 28.3502 31.727 28.2683 31.6273 28.1853C31.2162 27.8444 31.1623 27.5638 31.4824 27.1335M31.4824 27.1335L31.8836 27.4319M31.4824 27.1335L31.8836 27.4319M31.8836 27.4319C31.9719 27.3133 32.0723 27.1983 32.1871 27.0693C32.199 27.0561 32.211 27.0426 32.2231 27.029C32.3249 26.9149 32.4379 26.7883 32.5436 26.655L32.5438 26.6547C32.5838 26.6042 32.6252 26.5525 32.6675 26.4997C32.8888 26.223 33.1345 25.916 33.3365 25.5859L33.3366 25.5856C33.6357 25.096 33.7973 24.5788 33.7368 24.0573C33.6754 23.5285 33.3945 23.0721 32.9571 22.6943C32.1156 21.967 31.708 21.0305 31.5875 19.931C31.5179 19.2964 31.3689 18.756 30.9744 18.3697C30.5843 17.9878 30.041 17.8434 29.4178 17.7647L29.4177 17.7647C28.4767 17.6462 27.5208 17.5788 26.581 17.5125C26.1774 17.484 25.7767 17.4558 25.3815 17.4237L25.3812 17.4237C24.9074 17.3856 24.4391 17.355 23.9753 17.3247C22.4784 17.2267 21.0284 17.1319 19.5936 16.7991L19.5932 16.799C19.2655 16.7232 18.9444 16.6266 18.6434 16.5043L18.6428 16.5041C18.0182 16.2512 17.6617 15.9494 17.4793 15.6133C17.299 15.2812 17.2435 14.8317 17.3964 14.1855L17.3965 14.1851C17.5657 13.467 17.7785 12.7851 17.9971 12.0843C18.1366 11.6371 18.2785 11.1823 18.413 10.7054C18.9087 8.95004 19.2954 7.12125 19.1755 5.21874C19.138 4.61882 18.9828 3.99125 18.7244 3.44309L18.7243 3.44292C18.5274 3.02553 18.1783 2.68148 17.697 2.65861C17.2245 2.63616 16.8393 2.93477 16.5882 3.31459L16.5881 3.31472C16.286 3.77189 15.9576 4.33605 15.8258 4.94555L15.8258 4.94563C15.1619 8.01825 13.2263 10.3 11.0168 12.5691C9.37023 14.2601 7.73277 15.9659 6.09676 17.6701C4.93695 18.8783 3.77786 20.0857 2.61677 21.2866L2.61652 21.2869C2.16545 21.7541 1.67307 22.1925 1.16131 22.614L31.8836 27.4319ZM0.554878 22.8282C0.642111 22.8767 0.705168 22.875 0.777433 22.8529C0.880374 22.8214 1.00384 22.7437 1.16123 22.6141L0.554878 22.8282ZM0.554878 22.8282C0.548387 22.8179 0.521351 22.7741 0.507854 22.6622C0.489438 22.5094 0.510794 22.3129 0.581145 22.13L0.581361 22.1295C0.994623 21.0516 1.67116 20.1132 2.40666 19.1346L2.40686 19.1343C4.6735 16.1144 7.18558 13.3301 10.065 10.8931L10.065 10.8931C12.1975 9.08779 13.5226 6.80264 14.2194 4.14105L0.554878 22.8282ZM0.551895 36.5241C0.551747 36.524 0.55294 36.523 0.55593 36.5215C0.553536 36.5235 0.552042 36.5242 0.551895 36.5241ZM31.7756 27.6279C31.7756 27.6279 31.7756 27.6271 31.7758 27.6255C31.7758 27.627 31.7757 27.6278 31.7756 27.6279ZM19.4806 17.2861C19.1325 17.2056 18.7854 17.1017 18.4552 16.9676L19.4806 17.2861Z" fill="white" stroke="white" />
</svg>