<svg width="148" height="166" viewBox="0 0 148 166" fill="none" xmlns="http://www.w3.org/2000/svg">
<path d="M53.2356 165.456C54.8019 165.518 56.3576 165.501 57.927 165.485C58.6539 165.477 59.3838 165.47 60.1189 165.469L60.1234 165.47C73.4059 165.587 86.6633 165.094 99.8867 163.838L99.934 164.336M53.2356 165.456L53.2162 165.951L53.236 165.456C53.2359 165.456 53.2358 165.456 53.2356 165.456ZM53.2356 165.456C50.9833 165.366 48.7329 165.305 46.4858 165.245C40.8066 165.091 35.1491 164.938 29.5383 164.314L29.5381 164.314C18.7381 163.117 11.0754 155.662 9.00146 145.307L9.00098 145.305C8.87018 144.669 8.71033 143.997 8.44702 143.359C6.31818 138.2 4.17993 133.049 2.01849 127.902L2.01836 127.901C0.53183 124.369 0.388733 120.924 2.02039 117.404L2.02055 117.403C2.84227 115.627 3.49454 113.75 3.95912 111.856M3.95912 111.856L3.47369 111.736M3.95912 111.856C4.13403 111.147 4.32268 110.301 4.2639 109.478C4.20323 108.629 3.87785 107.791 3.03601 107.14L3.03587 107.14C1.04076 105.6 0.587418 103.529 0.510468 101.094C0.366257 96.3327 1.7169 92.0144 4.41776 88.0547L4.41788 88.0546C6.92842 84.3705 8.54271 80.3652 8.79344 75.835C8.92722 73.403 9.64131 71.381 10.8652 69.7191C12.0912 68.0543 13.8486 66.7239 16.1082 65.7102L15.9035 65.254L16.1083 65.7102C20.4828 63.7467 25.1517 62.8905 29.9112 62.5942C33.3111 62.3844 36.7205 62.2896 40.1395 62.1973L40.4001 62.1903C43.73 62.1005 47.0687 62.0105 50.4009 61.8159C55.0972 61.5433 59.7897 60.9938 64.4347 60.309C65.7209 60.1205 66.7074 59.7883 67.2136 59.0166C67.7195 58.2455 67.6283 57.2138 67.3019 55.9842L67.3019 55.9839C66.2282 51.947 65.028 47.9225 63.5994 43.9855C60.3088 34.9164 59.1364 25.7473 61.276 16.3125C63.3785 7.0689 70.3576 1.89282 79.1247 0.649412C81.4172 0.324317 83.0566 0.529041 84.3065 1.2691C85.556 2.00885 86.5077 3.33758 87.3037 5.46585C87.4608 5.88634 87.6185 6.3063 87.7761 6.72596C88.9797 9.93059 90.1765 13.1172 91.0474 16.3804C93.8414 26.8915 99.1336 35.8593 107.63 42.9425L107.63 42.9426C119.573 52.8974 129.978 64.2594 139.351 76.5586L139.352 76.5589C142.369 80.5126 145.278 84.4667 147.063 89.0541L147.064 89.0547C147.439 90.0154 147.564 91.0602 147.457 91.9357C147.347 92.8316 147.013 93.4393 146.59 93.6927C145.786 94.1713 145.049 94.1951 144.347 93.9836C143.619 93.7643 142.917 93.2876 142.234 92.7338C140.101 91.0036 138.029 89.1883 136.121 87.242L136.121 87.2417C131.338 82.3701 126.571 77.479 121.803 72.5872C115.082 65.6923 108.36 58.7959 101.592 51.9504C92.4911 42.7458 84.247 33.2399 81.4175 20.3442L81.4175 20.3441C80.9392 18.1659 79.7257 16.078 78.5047 14.2579L78.5046 14.2578C77.6368 12.9651 76.5022 12.2315 75.32 12.2868C74.1287 12.3425 73.1007 13.188 72.4303 14.5874L72.4302 14.5876C71.4548 16.6255 70.8623 18.9783 70.7199 21.2253M3.95912 111.856C3.95918 111.855 3.95926 111.855 3.95932 111.855L3.47369 111.736M3.47369 111.736C3.01659 113.6 2.37477 115.447 1.56674 117.193C-0.132431 120.859 0.0245514 124.452 1.5575 128.095C3.7184 133.241 5.85625 138.391 7.98482 143.55C8.22954 144.143 8.38191 144.776 8.5112 145.406C10.6259 155.964 18.4569 163.589 29.483 164.811C35.116 165.437 40.806 165.591 46.4933 165.745C48.7358 165.806 50.978 165.866 53.216 165.956C54.7949 166.018 56.3716 166.001 57.9476 165.985C58.6715 165.977 59.3952 165.97 60.1189 165.97C73.4168 166.087 86.6916 165.594 99.934 164.336M3.47369 111.736L73.7995 42.9315M99.934 164.336L99.8868 163.838C111.091 162.776 122.2 161.281 133.027 158.305M99.934 164.336L133.027 158.305M133.027 158.305C137.549 157.061 141.959 155.674 145.616 152.771C146.814 151.819 147.561 150.717 147.496 149.197L147.496 149.195C147.446 147.945 147.223 147.216 146.826 146.803C146.448 146.41 145.796 146.191 144.564 146.28L144.563 146.28C140.885 146.541 137.202 146.983 133.591 147.675C128.794 148.596 123.998 149.577 119.198 150.558C112.233 151.981 105.261 153.406 98.2673 154.655C89.1764 156.278 79.9294 156.749 70.7094 156.463C59.5013 156.115 48.2989 155.549 37.1115 154.838L37.1111 154.838C33.3385 154.595 29.5515 153.859 25.9115 152.904L25.9114 152.904C23.3359 152.227 21.5596 151.159 20.5785 149.522C19.6011 147.89 19.4797 145.803 19.9554 143.242L19.9555 143.241C20.1777 142.054 20.3191 140.845 20.4292 139.627L20.4293 139.625C20.7544 136.137 19.4478 133.272 16.9472 130.746L16.9467 130.746C16.8445 130.642 16.7419 130.538 16.6392 130.434C14.9648 128.74 13.2359 126.99 11.8511 125.015L12.2605 124.728L11.851 125.015C11.0186 123.828 10.6481 122.623 10.7818 121.424C10.9149 120.229 11.5397 119.114 12.5548 118.083C12.555 118.083 12.5551 118.083 12.5553 118.083L12.9115 118.433C14.0891 117.234 15.4138 116.175 16.737 115.116C17.1519 114.784 17.5667 114.452 17.9767 114.116C19.6666 112.736 19.8882 111.6 18.5723 109.858M133.027 158.305L18.1733 110.159M18.5723 109.858L18.1734 110.159C18.1734 110.159 18.1734 110.159 18.1733 110.159M18.5723 109.858L18.1733 110.159M18.5723 109.858C18.1056 109.24 17.5839 108.664 17.0618 108.088C16.6386 107.62 16.2152 107.153 15.8204 106.663C15.6427 106.442 15.4637 106.221 15.2845 106C14.374 104.879 13.4599 103.753 12.7037 102.535C10.5567 99.0732 10.8475 95.9732 13.8534 93.4163M18.1733 110.159C17.7655 109.619 17.3114 109.109 16.8393 108.587C16.7901 108.532 16.7406 108.478 16.691 108.423C16.2691 107.957 15.8355 107.479 15.431 106.976L15.4307 106.976C15.2563 106.759 15.0796 106.541 14.9017 106.322C13.9911 105.201 13.0534 104.046 12.2789 102.799L12.2788 102.799C11.1667 101.006 10.6523 99.2518 10.8497 97.5778C11.0479 95.8966 11.9547 94.375 13.5294 93.0355M13.8534 93.4163L13.5293 93.0356C13.5294 93.0355 13.5294 93.0355 13.5294 93.0355M13.8534 93.4163C17.7827 90.072 19.6436 85.7682 20.1838 80.9168C20.7286 76.0247 22.3678 74.5494 27.3175 73.934C31.1278 73.4612 34.9649 73.1948 38.8023 72.9284C40.4755 72.8122 42.1487 72.696 43.8198 72.5627L73.7995 42.9315M13.8534 93.4163L13.5294 93.0355M13.5294 93.0355C17.3436 89.7891 19.1579 85.6121 19.6869 80.8615C19.9628 78.3838 20.5256 76.6439 21.7518 75.4617C22.9719 74.2854 24.7608 73.748 27.2558 73.4378L27.256 73.4378C31.0801 72.9633 34.9395 72.6953 38.7834 72.4284C40.4532 72.3124 42.1202 72.1967 43.78 72.0643L43.7803 72.0643C45.674 71.9143 47.5648 71.7927 49.4511 71.6713C55.6328 71.2736 61.767 70.879 67.8016 69.5003L67.802 69.5002C69.2132 69.1789 70.6142 68.7652 71.9429 68.2337L71.9434 68.2335C74.7043 67.1329 76.5274 65.7217 77.5096 63.939C78.4889 62.1616 78.6792 59.9293 77.9958 57.0846L77.9957 57.0842C77.2914 54.142 76.3841 51.2743 75.4702 48.386C74.9 46.5836 74.3272 44.7732 73.7995 42.9315M73.7995 42.9315C71.7768 35.877 70.2435 28.67 70.7199 21.2253M70.7199 21.2253C70.7199 21.2251 70.7199 21.225 70.7199 21.2249L71.2189 21.2569L70.7199 21.2253ZM147.996 149.175C148.07 150.913 147.197 152.153 145.927 153.162C142.182 156.136 137.681 157.543 133.16 158.788L147.996 149.175ZM147.996 149.175C147.894 146.636 147.095 145.596 144.528 145.781L147.996 149.175Z" fill="white" stroke="white"/>
</svg>
