<svg width="40" height="33" viewBox="0 0 40 33" fill="none" xmlns="http://www.w3.org/2000/svg">
<g clip-path="url(#clip0_384_76)">
<path d="M37.12 32.2582C35.1697 32.6102 33.2527 33.211 31.2284 32.9263C28.9843 32.6113 27.1733 31.6899 26.0849 29.6354C26.0053 29.4854 25.7612 29.3453 25.5844 29.3322C23.1192 29.1508 20.9536 28.237 19.0066 26.7768C18.505 26.4009 18.3901 25.912 18.6939 25.5165C19.0044 25.1112 19.4906 25.0819 20.0066 25.4741C21.9668 26.9626 24.17 27.7612 26.6562 27.7373C27.0495 27.7329 27.1998 27.8883 27.3081 28.2262C27.739 29.5756 28.6428 30.4915 29.9964 30.975C30.0771 31.0033 30.1621 31.0196 30.1025 31.0033C29.9135 30.3079 29.7036 29.58 29.5257 28.8444C29.4859 28.6793 29.5544 28.488 29.5776 28.3088C29.6583 27.6862 29.9445 27.3331 30.6185 27.1093C35.6007 25.4567 38.7509 20.7077 38.3354 15.5783C37.9188 10.4447 33.9355 6.18454 28.7555 5.3349C22.1038 4.24406 15.8432 9.15935 15.4598 15.763C15.336 17.8958 15.7736 19.8993 16.7901 21.7811C17.0178 22.2027 17.1117 22.6014 16.7183 22.9654C16.3106 23.3424 15.6874 23.2012 15.3835 22.6547C14.525 21.1108 13.9991 19.4582 13.8399 17.709C13.2422 11.1183 17.5923 5.28601 24.1502 3.85836C31.3334 2.2949 38.5332 7.04504 39.7972 14.18C40.8734 20.2568 37.6216 26.0728 31.8361 28.4185C31.0737 28.7271 30.9621 29.1171 31.477 29.7875C32.0538 30.5404 32.8704 30.9663 33.7543 31.251C34.7841 31.5834 35.8349 31.8562 36.8758 32.1582C36.9608 32.1832 37.0415 32.2256 37.1233 32.2592L37.12 32.2582Z" fill="white"/>
<path d="M3.68725 28.493C4.92699 27.9736 6.05735 27.576 7.10594 27.0295C7.68382 26.7285 8.18326 26.2222 8.61197 25.7213C8.97329 25.2976 8.85838 25.1118 8.3269 24.8989C-0.523685 21.3493 -2.82859 10.3518 3.89277 3.73183C8.31032 -0.61848 15.4582 -1.24865 20.5608 2.27811C20.7973 2.44217 21.058 2.71162 21.1022 2.96585C21.1442 3.21032 20.9884 3.56886 20.7962 3.75247C20.5 4.03605 20.1111 3.94261 19.7818 3.71445C18.6592 2.93435 17.4371 2.36611 16.1101 2.00757C9.47272 0.211599 2.61545 4.71728 1.76354 11.4383C1.08842 16.7665 4.13364 21.6644 9.26831 23.5081C10.2108 23.8471 10.4904 24.2752 10.4495 25.277C10.4152 26.1233 9.981 26.7817 9.45725 27.4249C10.4473 27.1044 11.5014 26.7861 12.0472 25.88C12.7975 24.6338 13.7511 24.0362 15.2549 23.9362C16.7443 23.8374 18.1123 23.154 19.3774 22.3445C19.9211 21.9968 20.4172 22.0338 20.6923 22.4347C20.9884 22.8649 20.8337 23.3495 20.2802 23.7059C18.5564 24.8152 16.6593 25.4486 14.624 25.7289C14.3776 25.7626 14.0803 25.9397 13.94 26.1407C12.0881 28.7787 9.46278 29.6588 6.35458 29.3035C5.48388 29.2046 4.64965 28.7939 3.68725 28.4919V28.493Z" fill="white"/>
<path d="M26.2399 12.9247C26.241 14.9303 25.7858 16.8317 24.8819 18.6299C24.6908 19.0112 24.3869 19.2861 23.9737 19.1633C23.7063 19.084 23.4576 18.8004 23.3041 18.5473C23.2201 18.4082 23.3074 18.1214 23.3947 17.9378C25.0267 14.5262 25.009 11.132 23.3273 7.74212C23.0753 7.23365 23.2057 6.77841 23.6256 6.56763C24.083 6.33838 24.5372 6.49157 24.8112 7.01961C25.7725 8.87207 26.2399 10.8451 26.2388 12.9236L26.2399 12.9247Z" fill="white"/>
<path d="M36.3729 17.0101C36.3729 17.4327 36.0314 17.7695 35.6038 17.7695C35.1806 17.7695 34.8315 17.4284 34.8282 17.0101C34.8237 16.5896 35.163 16.2615 35.6038 16.2593C36.0469 16.2571 36.374 16.5765 36.3729 17.0101Z" fill="white"/>
<path d="M5.11397 11.7973C4.68304 11.7897 4.35156 11.4573 4.35156 11.0303C4.35156 10.6142 4.69741 10.2849 5.13165 10.2871C5.5681 10.2893 5.89185 10.6152 5.88743 11.0477C5.88301 11.4725 5.54048 11.8039 5.11287 11.7973H5.11397Z" fill="white"/>
<path d="M33.1642 16.998C33.173 17.4239 32.8438 17.7618 32.4139 17.7694C31.993 17.7759 31.6272 17.4293 31.625 17.023C31.6228 16.6014 31.9587 16.2646 32.3907 16.257C32.8338 16.2483 33.1554 16.5569 33.1642 16.9991V16.998Z" fill="white"/>
<path d="M11.7997 10.2857C12.2328 10.2911 12.5721 10.6247 12.5709 11.0451C12.5709 11.4526 12.2129 11.7927 11.7831 11.7937C11.3533 11.7948 11.0273 11.4656 11.0273 11.0288C11.0273 10.5964 11.3544 10.2813 11.7997 10.2857Z" fill="white"/>
<path d="M29.7217 17.0015C29.7294 17.4068 29.3759 17.7599 28.9516 17.7697C28.5217 17.7795 28.1869 17.4535 28.1836 17.0211C28.1803 16.5745 28.4853 16.2638 28.9328 16.2584C29.3582 16.2529 29.714 16.5876 29.7217 17.0015Z" fill="white"/>
<path d="M8.60605 10.2868C9.03145 10.2944 9.3773 10.641 9.37067 11.0506C9.36404 11.4591 8.9983 11.8035 8.58063 11.7959C8.15413 11.7883 7.82375 11.4493 7.82817 11.0223C7.83148 10.5899 8.16186 10.2792 8.60605 10.2868Z" fill="white"/>
<path d="M23.312 21.0606C23.0755 21.2258 22.8567 21.4876 22.5982 21.5332C22.2689 21.5919 22.0148 21.3594 21.9971 20.9867C21.9794 20.5967 22.1971 20.3207 22.5695 20.362C22.828 20.3902 23.0612 20.6423 23.3053 20.7933L23.3109 21.0595L23.312 21.0606Z" fill="white"/>
</g>
<defs>
<clipPath id="clip0_384_76">
<rect width="40" height="33" fill="white"/>
</clipPath>
</defs>
</svg>
