<svg width="45" height="42" viewBox="0 0 45 42" fill="none" xmlns="http://www.w3.org/2000/svg">
<g clip-path="url(#clip0_384_97)">
<path d="M37.49 29.9781H38.9885C38.9885 29.8103 38.9885 29.6544 38.9885 29.4986C38.9885 25.009 38.9885 20.5186 38.9885 16.029C38.9885 15.2473 39.2341 14.9987 40.0078 14.9987C40.8614 14.9987 41.7142 14.9987 42.5679 14.9987C43.2287 14.9987 43.4935 15.2361 43.5023 15.9035C43.5167 17.0489 43.5055 18.1943 43.5047 19.3397C43.5047 21.3762 43.5063 23.4136 43.5047 25.4502C43.5031 26.8617 43.4959 28.2733 43.4919 29.6848C43.4919 29.7639 43.5015 29.8431 43.5119 29.9925C43.7488 29.9925 43.9824 29.9837 44.2152 29.9941C44.736 30.0173 45.0056 30.2827 44.9992 30.7502C44.9928 31.2026 44.696 31.472 44.188 31.472C39.4421 31.4736 34.6963 31.472 29.9504 31.4736C26.351 31.4744 22.7516 31.4776 19.1522 31.48C19.0586 31.48 18.9658 31.4808 18.8722 31.48C18.2834 31.4728 18.0074 31.2154 18.0058 30.6375C18.0026 28.8791 18.0106 27.1215 18.0106 25.3631C18.0106 22.5656 18.0082 19.7689 18.0066 16.9714C18.0058 15.0931 18.001 13.2147 18.0066 11.3372C18.0082 10.7905 18.2802 10.4996 18.7506 10.502C19.2106 10.5044 19.4995 10.8057 19.5003 11.3444C19.5043 13.2483 19.4907 15.1522 19.4907 17.0561C19.4907 19.0535 19.5003 21.0509 19.5003 23.0475C19.5003 25.0449 19.4939 27.0416 19.4907 29.039C19.4907 29.3315 19.4907 29.6233 19.4907 29.9534H20.9867C20.9867 29.2588 20.9867 28.5682 20.9867 27.8776C20.9867 26.3989 20.9859 24.9203 20.9867 23.4408C20.9867 22.771 21.2524 22.5096 21.9292 22.5096C22.8092 22.5096 23.6893 22.5088 24.5685 22.5096C25.2646 22.5104 25.4862 22.735 25.4886 23.4432C25.495 25.5205 25.4998 27.5979 25.5054 29.6744C25.5054 29.7647 25.5054 29.8558 25.5054 29.9677H26.9871C26.9871 29.8023 26.9871 29.6456 26.9871 29.4898C26.9871 25.9993 26.9871 22.5088 26.9871 19.0175C26.9871 18.2462 27.2471 17.9825 28.0135 17.9801C28.8656 17.9777 29.7176 17.9761 30.5697 17.9801C31.2273 17.9833 31.5033 18.2462 31.5033 18.8961C31.5033 21.5057 31.4937 24.1154 31.4897 26.725C31.4881 27.7897 31.4897 28.8543 31.4897 29.9542H32.9882C32.9882 29.8015 32.9882 29.6568 32.9882 29.5122C32.9882 26.5148 32.9882 23.5167 32.9882 20.5194C32.9882 19.7417 33.2442 19.4819 34.0082 19.4819C34.8747 19.4819 35.7419 19.4787 36.6084 19.4827C37.1932 19.4851 37.5036 19.7801 37.5044 20.3603C37.506 22.078 37.4948 23.7949 37.4916 25.5125C37.4892 26.9888 37.4916 28.4643 37.4916 29.9773L37.49 29.9781ZM41.9871 29.9374V16.535H40.5286V29.9374H41.9871ZM29.98 29.943V19.5083H28.5375V29.943H29.98ZM35.9979 21.0269H34.5363V29.927H35.9979V21.0269ZM22.5172 29.9302H23.9933V24.0203H22.5172V29.9302Z" fill="white"/>
<path d="M0.0240209 31.4561C0.0240209 29.9382 -0.0423827 28.4444 0.0456221 26.9593C0.112026 25.8499 0.76006 25.0018 1.72411 24.436C2.78897 23.8109 3.86423 23.2019 4.94188 22.5992C5.1523 22.4817 5.2363 22.3538 5.2395 22.1036C5.2483 21.449 5.1995 20.8424 4.85148 20.2373C4.61387 19.8233 4.53546 19.279 4.51706 18.7874C4.47146 17.5773 4.50106 16.364 4.50266 15.1515C4.50426 13.8151 5.53231 12.7392 6.87079 12.6865C7.35001 12.6673 7.83164 12.6609 8.31006 12.6857C8.66368 12.7033 8.88049 12.6297 8.85249 12.2221C8.84529 12.1198 8.8861 12.0151 8.9045 11.9152C10.8294 11.6698 11.9167 12.74 12.0031 14.5688C12.0687 15.9507 12.0255 17.3391 12.0119 18.7243C12.0047 19.4836 11.687 20.147 11.3846 20.8352C11.187 21.2828 11.2814 21.8631 11.2702 22.3842C11.2686 22.4425 11.427 22.5113 11.5182 22.564C12.5759 23.1731 13.6335 23.7805 14.6928 24.3872C15.8897 25.073 16.5057 26.0969 16.5041 27.4828C16.5025 28.7992 16.5041 30.1157 16.5041 31.4561H0.0240209ZM9.0045 29.967H14.9904C14.9904 29.0678 14.992 28.191 14.9904 27.3142C14.9888 26.6636 14.7032 26.1456 14.1592 25.8179C13.0951 25.1769 12.0071 24.5758 10.9958 23.9971C10.4774 24.5926 10.0134 25.1889 9.48133 25.7148C9.13571 26.0561 8.9653 26.3766 8.9901 26.8818C9.0413 27.9001 9.0053 28.9223 9.0053 29.9678L9.0045 29.967ZM5.50671 24.0003C4.58907 24.5239 3.59141 25.101 2.58656 25.6637C1.85532 26.0729 1.5009 26.6907 1.5001 27.5204C1.5001 28.2381 1.4985 28.9567 1.5017 29.6745C1.5017 29.7744 1.5265 29.8743 1.5401 29.979H7.43402C7.45482 29.9438 7.48042 29.9214 7.48042 29.8991C7.48362 28.7137 7.48922 27.5284 7.47802 26.3438C7.47722 26.2311 7.39161 26.1017 7.31081 26.0097C6.72438 25.3471 6.12995 24.6917 5.50671 24.0011V24.0003ZM6.95159 17.0705C6.87319 17.1441 6.82278 17.2104 6.75638 17.2512C6.17235 17.6133 5.91234 18.0856 5.99874 18.8154C6.11155 19.7601 6.52037 20.4547 7.39001 20.8216C8.26366 21.1901 9.0805 21.0254 9.78694 20.3884C10.5318 19.717 10.5454 18.825 10.4902 17.9234C10.4854 17.8498 10.3398 17.7308 10.2534 17.7252C9.83175 17.698 9.40772 17.6876 8.9845 17.698C8.23486 17.7156 7.48922 17.7379 6.95079 17.0705H6.95159ZM10.5006 16.1977C10.5006 15.6039 10.5286 15.0452 10.4886 14.4913C10.4694 14.2251 10.3462 13.9557 10.223 13.7112C10.1358 13.5377 9.98535 13.469 9.77734 13.6344C9.53813 13.8239 9.27011 14.0644 8.9909 14.1004C8.30926 14.1883 7.61403 14.1715 6.92359 14.1947C6.48997 14.2091 6.09715 14.4721 6.03874 14.8517C5.99554 15.1307 6.02994 15.4216 6.02994 15.7293C6.53637 15.2042 7.0716 15.1587 7.37481 15.6414C7.64603 16.073 8.02765 16.1953 8.48847 16.1977C9.14051 16.2009 9.79174 16.1985 10.4998 16.1985L10.5006 16.1977ZM6.73078 22.1828C6.72518 23.4073 7.50842 24.0875 8.25246 24.8396C9.0157 24.0811 9.81494 23.4073 9.76774 22.1812C8.75249 22.616 7.77083 22.616 6.73078 22.1828Z" fill="white"/>
<path d="M36.0059 7.49409C34.7298 7.49409 33.5177 7.49409 32.3057 7.49409C31.8392 7.49409 31.372 7.49569 30.9056 7.49409C30.2608 7.49169 30.0079 7.24631 30.0063 6.60609C30.0023 5.04748 30.0047 3.48888 30.0047 1.93027C30.0047 1.81118 30.0047 1.69129 30.0047 1.53143H8.98202V1.96384C8.98202 4.50876 8.98202 7.05369 8.98202 9.59941C8.98202 10.1725 8.73 10.4946 8.26998 10.5122C7.80515 10.5298 7.48994 10.1773 7.48834 9.6026C7.48354 7.23033 7.48594 4.85885 7.48594 2.48657C7.48594 1.96704 7.48194 1.4475 7.48674 0.927171C7.49394 0.277352 7.77635 6.29358e-07 8.41639 6.29358e-07C11.8238 0.00319777 15.2312 0.00799347 18.6385 0.00799347C22.2987 0.00799347 25.9581 0.00239848 29.6183 6.29358e-07C30.5784 -0.000532227 31.3965 0.337299 32.0729 1.01349C33.7609 2.69998 35.4546 4.38088 37.1275 6.08256C37.3123 6.27119 37.4675 6.58051 37.4731 6.83708C37.5059 8.32775 37.4931 9.82001 37.4867 11.3115C37.4843 11.8726 37.2339 12.1379 36.7451 12.1339C36.2507 12.1299 36.0203 11.8726 36.0171 11.3019C36.0099 10.1965 36.0091 9.09026 36.0059 7.98485C36.0059 7.84098 36.0059 7.69711 36.0059 7.49489V7.49409ZM31.5104 5.98504H34.7434C33.6769 4.9196 32.5769 3.82058 31.5104 2.75513V5.98504Z" fill="white"/>
<path d="M8.98356 40.4798H36.0178C36.0178 39.7405 36.0186 39.0131 36.0178 38.285C36.017 37.779 36.0026 37.2723 36.0114 36.7663C36.0202 36.282 36.2938 35.9886 36.7226 35.9719C37.1611 35.9551 37.4947 36.2588 37.5003 36.7472C37.5123 37.879 37.4955 39.0107 37.4923 40.1425C37.4923 40.4351 37.4947 40.7284 37.5043 41.0209C37.5259 41.6971 37.2379 41.9937 36.549 41.9937C31.48 41.9953 26.4109 41.9977 21.3418 41.9985C17.1768 41.9993 13.0118 41.9985 8.84755 41.9985C7.62189 41.9985 7.48828 41.8642 7.48828 40.6517C7.48828 38.4401 7.48828 36.2284 7.48988 34.016C7.48988 33.8705 7.49388 33.7219 7.52668 33.5812C7.61469 33.2039 7.96031 32.953 8.31553 32.9905C8.68275 33.0297 8.97556 33.3262 8.98036 33.7155C8.99316 34.6482 8.98836 35.581 8.98756 36.513C8.98756 37.6855 8.98516 38.8581 8.98356 40.0306C8.98356 40.1737 8.98356 40.316 8.98356 40.4782V40.4798Z" fill="white"/>
<path d="M40.1649 11.0862C39.9616 11.0862 39.8464 11.0886 39.7304 11.0862C39.3168 11.0758 39.0128 10.7993 38.988 10.4116C38.9608 9.98881 39.2232 9.63553 39.6488 9.62035C40.4457 9.59237 41.2449 9.58518 42.0418 9.61475C42.5106 9.63233 42.7458 9.93127 42.7498 10.4076C42.7554 11.1134 42.753 11.8192 42.749 12.5249C42.7458 13.0317 42.4706 13.3354 42.0234 13.3386C41.5649 13.3426 41.2913 13.0653 41.2537 12.5553C41.2457 12.4498 41.2433 12.3443 41.2417 12.3203C40.7897 12.7352 40.2841 13.1612 39.8216 13.6296C38.4928 14.9756 37.1791 16.3359 35.8662 17.6963C35.5686 18.0048 35.2542 18.0536 34.8574 17.8977C33.1573 17.2287 31.4468 16.5861 29.7507 15.9083C29.4483 15.7876 29.2499 15.8276 28.9971 16.009C26.7617 17.61 24.5176 19.199 22.2751 20.7903C21.8191 21.1141 21.3615 21.0685 21.0894 20.676C20.8438 20.3212 20.9542 19.8935 21.3871 19.585C23.8312 17.8418 26.2801 16.1049 28.721 14.3585C29.0731 14.1067 29.4083 14.1619 29.7715 14.305C31.4356 14.9588 33.1021 15.6038 34.767 16.256C34.9478 16.3271 35.0766 16.3687 35.2494 16.1889C36.8167 14.5551 38.3976 12.9342 39.9744 11.31C40.02 11.2637 40.0592 11.2117 40.1657 11.087L40.1649 11.0862Z" fill="white"/>
<path d="M31.5085 32.9889C34.2142 32.9889 36.9208 32.9897 39.6265 32.9873C39.9865 32.9873 40.2738 33.0856 40.437 33.4421C40.5706 33.733 40.545 34.0368 40.321 34.2118C40.1105 34.3765 39.8001 34.4908 39.5337 34.4924C36.5232 34.5115 33.5126 34.5043 30.5028 34.5043C28.1315 34.5043 25.761 34.502 23.3897 34.5075C22.992 34.5083 22.676 34.3861 22.5184 34.0096C22.3 33.4853 22.688 32.9905 23.3097 32.9897C25.509 32.9873 27.7091 32.9889 29.9084 32.9889C30.442 32.9889 30.9749 32.9889 31.5077 32.9889H31.5085Z" fill="white"/>
<path d="M20.239 9.00156C19.2654 9.00156 18.2917 9.00316 17.3189 9.00156C16.826 9.00076 16.5076 8.71782 16.4964 8.27981C16.4852 7.82582 16.7756 7.49891 17.2668 7.49571C19.2534 7.48292 21.2407 7.48532 23.228 7.49411C23.6608 7.49651 24.0104 7.85619 24.016 8.24544C24.0216 8.65867 23.6632 8.99757 23.2 8.99996C22.2135 9.00476 21.2263 9.00156 20.2398 9.00156H20.239Z" fill="white"/>
<path d="M20.2241 6.01121C19.2553 6.01121 18.2856 6.0144 17.3168 6.00961C16.9416 6.00721 16.624 5.87293 16.5191 5.48288C16.4255 5.13359 16.5159 4.80908 16.8512 4.62365C16.9928 4.54532 17.1784 4.51894 17.344 4.51894C19.2865 4.51415 21.2298 4.51734 23.1723 4.52294C23.6763 4.52454 23.9923 4.80269 24.0091 5.2391C24.0251 5.66112 23.6699 6.00961 23.1723 6.016C22.2963 6.02799 21.4194 6.0176 20.5426 6.016C20.4362 6.016 20.3305 6.016 20.2241 6.016C20.2241 6.0144 20.2241 6.0128 20.2241 6.01121Z" fill="white"/>
<path d="M13.4645 9.00165C13.2245 9.00165 12.9853 9.00485 12.7453 9.00165C12.2925 8.99446 11.9669 8.69792 11.9461 8.2807C11.9277 7.91463 12.2493 7.52617 12.6565 7.5022C13.2005 7.47102 13.7494 7.47022 14.2926 7.5022C14.7446 7.52857 15.0134 7.87226 14.9934 8.31027C14.975 8.71231 14.6694 8.99046 14.223 9.00165C13.9702 9.00805 13.7174 9.00245 13.4645 9.00325V9.00165Z" fill="white"/>
<path d="M13.5177 4.52224C13.7841 4.52224 14.0505 4.51425 14.3162 4.52464C14.6722 4.53822 14.9458 4.7932 14.9874 5.13449C15.0386 5.54612 14.8538 5.92338 14.4802 5.95296C13.8225 6.00411 13.1553 5.99852 12.4969 5.95456C12.1616 5.93218 11.9088 5.50216 11.9496 5.18005C11.9944 4.82677 12.2785 4.54382 12.6409 4.52304C12.9329 4.50625 13.2257 4.51984 13.5185 4.51984V4.52224H13.5177Z" fill="white"/>
</g>
<defs>
<clipPath id="clip0_384_97">
<rect width="45" height="42" fill="white"/>
</clipPath>
</defs>
</svg>
