<svg width="43" height="38" viewBox="0 0 43 38" fill="none" xmlns="http://www.w3.org/2000/svg">
<g clip-path="url(#clip0_384_112)">
<path d="M11.9359 31.5904C12.8921 32.119 13.864 32.5361 14.8849 32.8325C15.0666 32.8853 15.1146 32.9705 15.1135 33.1531C15.1054 34.4912 15.1097 35.8292 15.1097 37.1678C15.1097 37.7126 15.3927 37.9999 15.9355 37.9999C17.9747 37.9999 20.0139 38.0004 22.0536 37.9993C22.646 37.9993 22.902 37.738 22.9026 37.143C22.9026 36.4064 22.9079 35.6703 22.9026 34.9336C22.8999 34.5844 22.7101 34.3236 22.418 34.2314C22.1113 34.1344 21.7717 34.2261 21.6056 34.4906C21.5248 34.6194 21.479 34.7903 21.4741 34.9438C21.4585 35.4633 21.4682 35.9834 21.4682 36.5292H16.5797C16.5753 36.4511 16.5673 36.373 16.5673 36.2948C16.5662 35.0376 16.5673 33.7799 16.5656 32.5226C16.5651 31.9633 16.3991 31.7316 15.8595 31.5995C14.5847 31.287 13.394 30.7777 12.269 30.1063C11.8642 29.8643 11.5661 29.9074 11.2286 30.2442C10.3387 31.1329 9.44929 32.0215 8.56312 32.9133C8.49412 32.9828 8.45153 33.0777 8.40841 33.1434C7.21013 31.9401 6.0663 30.7917 4.90575 29.6267C5.74288 28.793 6.61342 27.926 7.48396 27.0589C8.20196 26.3432 8.2025 26.2721 7.70443 25.404C7.12982 24.4027 6.69913 23.3406 6.42152 22.2186C6.27113 21.6108 6.0787 21.4518 5.44479 21.4507C4.21417 21.4491 2.98301 21.4496 1.75239 21.4496C1.66399 21.4496 1.57613 21.4496 1.46886 21.4496V16.549C1.57289 16.549 1.67585 16.549 1.77934 16.549C3.01913 16.549 4.25891 16.5496 5.49869 16.5501C6.05228 16.5501 6.27922 16.3728 6.4102 15.8355C6.7126 14.5966 7.20528 13.4364 7.8532 12.3409C8.15291 11.8343 8.11679 11.5719 7.69419 11.151C6.75357 10.2139 5.81403 9.27515 4.88311 8.34611C6.03719 7.19236 7.17887 6.051 8.3378 4.8924C8.37176 4.91988 8.42889 4.9576 8.47633 5.00556C9.36628 5.89418 10.2551 6.78334 11.1435 7.67304C11.5947 8.12517 11.8146 8.15858 12.3746 7.83201C13.4667 7.19451 14.6176 6.70575 15.8487 6.40559C16.3975 6.27194 16.564 6.0413 16.564 5.46362C16.5651 4.22418 16.5651 2.98475 16.5656 1.74531C16.5656 1.65747 16.5656 1.56963 16.5656 1.46401H21.4655C21.4655 1.78842 21.4655 2.10905 21.4655 2.42915C21.4655 2.83332 21.4601 3.23748 21.4698 3.64164C21.48 4.06251 21.7851 4.35567 22.1905 4.35297C22.5818 4.34974 22.8934 4.06144 22.8977 3.65458C22.9074 2.6668 22.9074 1.67902 22.8939 0.69125C22.8885 0.282776 22.591 0.00471115 22.1808 0.00416946C20.0694 -0.000679016 17.9585 -0.000675201 15.8471 0.00309753C15.3932 0.00363541 15.1124 0.307026 15.1108 0.786095C15.107 2.1333 15.1038 3.48052 15.1146 4.82773C15.1162 5.03843 15.0429 5.10795 14.8547 5.17908C13.8748 5.54822 12.9034 5.93945 11.8281 6.36247C11.5192 6.03968 11.1343 5.62743 10.7387 5.22543C10.1403 4.61757 9.535 4.01617 8.93235 3.41262C8.53778 3.01762 8.1238 3.01169 7.73354 3.4013C6.29701 4.83528 4.86101 6.27032 3.42664 7.70645C2.9981 8.1354 3.0008 8.50077 3.43311 8.93457C4.37103 9.87601 5.30841 10.818 6.25334 11.7524C6.38433 11.8817 6.3908 11.9658 6.31479 12.1388C5.92669 13.0242 5.55475 13.9176 5.20061 14.817C5.12029 15.0213 5.04536 15.1086 4.81142 15.1064C3.49078 15.094 2.17014 15.101 0.849505 15.1021C0.28729 15.1021 0.00375739 15.378 0.00267931 15.9412C-0.000554904 17.9975 -0.000554904 20.0545 0.0010622 22.1108C0.0010622 22.5969 0.305079 22.8982 0.792906 22.8992C2.1405 22.9025 3.48809 22.9068 4.83568 22.8965C5.04806 22.8949 5.13269 22.9714 5.18659 23.1622C5.45503 24.1166 5.84475 25.0224 6.32342 25.889C6.41721 26.0582 6.36007 26.1417 6.24741 26.2533C5.32997 27.164 4.41793 28.0806 3.50102 28.9924C2.96954 29.5211 2.97007 29.839 3.50642 30.3741C4.91168 31.7763 6.31102 33.1833 7.72437 34.5774C7.86722 34.7186 8.07637 34.8231 8.27257 34.8727C8.53994 34.9406 8.74747 34.7725 8.93235 34.5866C9.85734 33.6575 10.785 32.7312 11.7127 31.8043C11.7817 31.7353 11.8545 31.669 11.9364 31.5914L11.9359 31.5904Z" fill="white"/>
<path d="M27.4681 14.3269C30.3158 14.3269 33.163 14.3296 36.0107 14.3226C36.2452 14.322 36.3595 14.3662 36.4414 14.6211C36.9794 16.296 38.6553 17.2487 40.371 16.8807C42.0366 16.5228 43.1562 14.952 42.9816 13.2173C42.8296 11.703 41.6108 10.4884 40.0093 10.2556C38.6283 10.0546 37.1071 10.9432 36.5546 12.2727C36.5476 12.2894 36.5401 12.3055 36.5336 12.3222C36.3067 12.8897 36.3067 12.8848 35.6765 12.8848C30.1525 12.8832 24.6279 12.8573 19.1039 12.8961C16.7348 12.9128 15.0676 14.1717 14.1065 16.2679C13.0332 18.6094 13.2747 20.9002 14.8282 22.9765C15.9079 24.4191 17.3914 25.1676 19.2128 25.1692C24.8268 25.1741 30.4409 25.173 36.0549 25.1671C36.2781 25.1671 36.3692 25.2204 36.4371 25.4489C36.877 26.9201 38.2833 27.8804 39.8481 27.8044C41.3305 27.7327 42.6307 26.6011 42.9282 25.1234C43.285 23.35 42.1919 21.6104 40.4513 21.182C38.7038 20.752 36.9163 21.7764 36.4177 23.5057C36.3665 23.6841 36.2889 23.7223 36.1207 23.7223C30.4527 23.7186 24.7848 23.7304 19.1168 23.7121C17.4792 23.7067 16.3278 22.8402 15.5452 21.4531C14.4552 19.5223 14.8428 16.9297 16.4405 15.4273C17.2038 14.7095 18.1099 14.3269 19.1686 14.328C21.9354 14.3296 24.7018 14.3285 27.4686 14.328L27.4681 14.3269ZM39.6584 11.6928C40.7079 11.6987 41.552 12.5529 41.5461 13.6026C41.5402 14.6685 40.6939 15.5119 39.6271 15.5135C38.5857 15.5151 37.727 14.6583 37.7233 13.6129C37.7195 12.5367 38.5755 11.6869 39.6579 11.6928H39.6584ZM39.6487 26.3602C38.583 26.3613 37.7297 25.5136 37.7276 24.4509C37.7254 23.3872 38.5744 22.5341 39.6385 22.5309C40.6944 22.5282 41.5547 23.3942 41.5488 24.4536C41.5429 25.5066 40.6939 26.3586 39.6492 26.3602H39.6487Z" fill="white"/>
<path d="M10.2505 19.1632C10.4327 23.1289 12.2487 26.1154 15.8479 27.9616C17.1195 28.6136 18.5 28.8933 19.9279 28.9278C20.4367 28.9402 20.7671 28.6675 20.7812 28.2354C20.7962 27.7768 20.4906 27.4912 19.9672 27.4744C17.1292 27.385 14.8377 26.2135 13.2282 23.8806C11.4806 21.3473 11.2138 18.592 12.452 15.7726C13.5872 13.1881 15.6064 11.5989 18.3636 10.9803C18.8934 10.8612 19.447 10.8358 19.9915 10.7965C20.4804 10.7609 20.7849 10.5006 20.7817 10.0679C20.7785 9.62496 20.4561 9.3442 19.9559 9.34959C15.6657 9.39432 11.8881 12.2536 10.6834 16.3772C10.5578 16.8067 10.4532 17.2453 10.3853 17.6867C10.3131 18.1555 10.2958 18.633 10.25 19.1632H10.2505Z" fill="white"/>
<path d="M32.9242 6.29081C32.4735 6.76988 32.0256 7.24625 31.5782 7.72316C31.1297 8.20115 30.6785 8.67645 30.2365 9.15983C30.1115 9.29617 29.9794 9.34898 29.7923 9.34844C27.9693 9.3409 26.1458 9.34467 24.3227 9.34036C23.9567 9.33928 23.6366 9.41634 23.4797 9.78656C23.27 10.2807 23.6177 10.7835 24.1729 10.7856C25.5561 10.791 26.9392 10.7883 28.3224 10.7883C28.9779 10.7883 29.6339 10.7813 30.2893 10.79C30.561 10.7932 30.7696 10.6983 30.954 10.5006C31.9102 9.47724 32.8762 8.46305 33.8292 7.43702C33.9893 7.26511 34.1106 7.20961 34.3521 7.30661C36.1352 8.02117 38.1652 7.06303 38.7452 5.25076C39.3419 3.38676 38.2816 1.42576 36.4144 0.939685C35.0064 0.573243 33.6168 1.09811 32.7581 2.32084C31.9868 3.41963 32.011 4.95976 32.8174 6.11352C32.853 6.16417 32.8816 6.21914 32.9247 6.29027L32.9242 6.29081ZM33.6448 4.20533C33.6357 3.14588 34.4852 2.28312 35.5466 2.27504C36.595 2.26696 37.4752 3.13941 37.4769 4.18862C37.4785 5.21735 36.623 6.08981 35.6032 6.09843C34.5073 6.10759 33.654 5.28363 33.6448 4.20586V4.20533Z" fill="white"/>
<path d="M32.8827 31.863C32.7199 32.1864 32.5372 32.4865 32.411 32.8088C31.6052 34.8668 33.1468 37.2082 35.3569 37.2977C37.5092 37.3844 39.1414 35.6358 38.8935 33.5082C38.6391 31.3241 36.2668 29.9721 34.2535 30.8688C34.0982 30.9378 34.0034 30.9232 33.8799 30.8025C32.8719 29.818 31.8504 28.8469 30.8462 27.8586C30.5718 27.5886 30.2813 27.4673 29.89 27.4706C27.9866 27.4867 26.0828 27.4754 24.1789 27.4781C23.6517 27.4787 23.3223 27.8564 23.4081 28.3463C23.4706 28.7052 23.7649 28.931 24.1983 28.9326C25.285 28.9369 26.3711 28.9347 27.4578 28.9347C28.1942 28.9347 28.9305 28.931 29.6668 28.9407C29.7725 28.9423 29.9045 28.9789 29.9778 29.0484C30.9335 29.9581 31.8806 30.8769 32.8288 31.7941C32.8541 31.8183 32.8725 31.8501 32.8822 31.8625L32.8827 31.863ZM35.5606 35.854C34.5106 35.8632 33.6524 35.0193 33.6438 33.9711C33.6352 32.9063 34.4782 32.0403 35.5369 32.0269C36.5799 32.0134 37.4683 32.8869 37.4764 33.9345C37.4844 34.9875 36.6285 35.8454 35.5606 35.8546V35.854Z" fill="white"/>
<path d="M22.4269 19.8149C23.774 19.8149 25.121 19.8192 26.4681 19.8106C26.6928 19.809 26.8028 19.8607 26.889 20.0967C27.3585 21.3868 28.2722 22.1903 29.6446 22.3568C31.0709 22.5298 32.1894 21.9607 32.9543 20.7434C34.0437 19.0087 33.1866 16.5864 31.2488 15.887C29.353 15.2031 27.3429 16.2367 26.8163 18.1783C26.7629 18.375 26.6616 18.3771 26.509 18.3755C23.878 18.3545 21.2469 18.3362 18.6159 18.3173C18.4812 18.3163 18.3464 18.313 18.2116 18.3184C17.8057 18.3351 17.506 18.6283 17.4963 19.0136C17.4866 19.3962 17.7723 19.7233 18.1717 19.7529C18.4844 19.7761 18.7997 19.7686 19.114 19.7691C20.2185 19.7707 21.323 19.7696 22.428 19.7696C22.428 19.7847 22.428 19.7998 22.428 19.8144L22.4269 19.8149ZM28.1515 19.0502C28.1353 18.0096 28.9843 17.1361 30.0273 17.1205C31.0865 17.1048 31.9565 17.9455 31.9802 19.0071C32.0029 20.0364 31.1383 20.9352 30.1098 20.9514C29.0296 20.9681 28.1682 20.1323 28.1515 19.0502Z" fill="white"/>
</g>
<defs>
<clipPath id="clip0_384_112">
<rect width="43" height="38" fill="white" transform="matrix(1 0 0 -1 0 38)"/>
</clipPath>
</defs>
</svg>
