<svg width="40" height="40" viewBox="0 0 40 40" fill="none" xmlns="http://www.w3.org/2000/svg">
<g clip-path="url(#clip0_384_108)">
<path d="M1.77182 16.163C2.24226 16.1103 2.71308 16.0611 3.18313 16.0042C3.78627 15.9307 4.3871 15.8242 4.99216 15.7841C5.36105 15.7599 5.51722 15.6311 5.64415 15.2699C5.92342 14.4752 6.28538 13.709 6.62541 12.9362C6.68157 12.8085 6.68734 12.7308 6.59618 12.6169C5.64762 11.4315 4.70559 10.241 3.76242 9.05126C3.44815 8.65507 3.47239 8.24273 3.83242 7.88192C5.17295 6.53989 6.51425 5.199 7.85631 3.8585C8.25405 3.46116 8.64678 3.44154 9.08298 3.78811C10.2566 4.7205 11.4328 5.64981 12.6037 6.58566C12.7191 6.67797 12.8015 6.69567 12.9392 6.62182C13.7762 6.17216 14.6509 5.81021 15.5621 5.53903C15.6744 5.50557 15.7245 5.45479 15.7383 5.33094C15.9102 3.80311 16.0887 2.27644 16.2672 0.749384C16.3222 0.280113 16.6326 0.00124264 17.1069 0.000857989C19.0363 -0.00106525 20.9658 -0.000680606 22.8948 0.00047334C23.3641 0.00047334 23.6788 0.284729 23.733 0.751692C23.9099 2.27875 24.0884 3.8058 24.26 5.33324C24.2738 5.45672 24.3223 5.50595 24.4361 5.53941C25.3535 5.81213 26.2336 6.17793 27.0764 6.63028C27.1884 6.69067 27.2607 6.69144 27.3634 6.60912C28.5243 5.68135 29.6913 4.76089 30.8526 3.8335C31.0642 3.66464 31.2846 3.50231 31.5607 3.55732C31.745 3.59425 31.95 3.67925 32.0808 3.80849C33.4629 5.17169 34.8326 6.54681 36.2035 7.92116C36.5232 8.24157 36.5386 8.6643 36.247 9.03318C35.54 9.92826 34.8299 10.8203 34.121 11.7138C33.8741 12.025 33.6298 12.3385 33.3786 12.6462C33.3132 12.7258 33.2967 12.7881 33.3482 12.8843C33.8137 13.7494 34.1872 14.6533 34.4764 15.5922C34.4945 15.6507 34.583 15.7203 34.6453 15.7276C36.1774 15.9111 37.7102 16.0869 39.2431 16.2634C39.7008 16.3161 39.9951 16.6231 39.9963 17.082C40.0005 19.024 40.0005 20.9657 39.997 22.9078C39.9963 23.3752 39.6989 23.6814 39.2312 23.7352C37.7037 23.9106 36.1766 24.0903 34.6491 24.2626C34.5399 24.2749 34.4941 24.3207 34.4649 24.4176C34.1837 25.3596 33.806 26.262 33.3417 27.1278C33.2825 27.2378 33.3367 27.2913 33.3921 27.3609C34.1606 28.3295 34.9288 29.2984 35.6973 30.2673C35.8766 30.4931 36.0566 30.7185 36.2347 30.9451C36.5478 31.3436 36.5267 31.7555 36.1674 32.1152C34.8042 33.4799 33.439 34.8427 32.0735 36.2051C31.7654 36.5125 31.3453 36.5409 30.9941 36.2675C30.3725 35.7832 29.7582 35.2893 29.1405 34.8C28.5381 34.3227 27.9369 33.8438 27.3291 33.373C27.2807 33.3353 27.1707 33.326 27.116 33.3545C26.2463 33.8119 25.3439 34.188 24.4027 34.4696C24.2954 34.5015 24.2734 34.5612 24.2619 34.6619C24.0892 36.1832 23.9111 37.7037 23.7353 39.2246C23.678 39.7185 23.3768 39.9966 22.8767 39.9974C20.9538 40.0001 19.031 40.0001 17.1081 39.9982C16.633 39.9978 16.3211 39.7189 16.2649 39.2496C16.1537 38.3149 16.0468 37.3799 15.9391 36.4448C15.8702 35.8474 15.7995 35.2504 15.7375 34.6523C15.7264 34.545 15.6848 34.4962 15.5852 34.4665C14.6555 34.19 13.7639 33.8192 12.9095 33.3614C12.7911 33.298 12.7203 33.3199 12.6241 33.3964C11.4367 34.3431 10.2469 35.2862 9.05644 36.2286C8.64793 36.5517 8.24251 36.5279 7.87208 36.1582C6.52579 34.8143 5.18103 33.4684 3.83627 32.1225C3.472 31.7582 3.447 31.3447 3.76973 30.9366C4.70752 29.7511 5.64685 28.5664 6.59079 27.3859C6.67888 27.2755 6.69696 27.199 6.62657 27.0682C6.17844 26.2374 5.81994 25.3681 5.54799 24.4637C5.50722 24.3276 5.44952 24.2726 5.30335 24.2564C3.79511 24.0879 2.28842 23.9095 0.780948 23.7356C0.278203 23.6779 0.00125013 23.3752 0.000865476 22.8655C-0.000288492 20.9492 -0.000288492 19.0325 0.000865476 17.1162C0.000865476 16.63 0.273587 16.3257 0.758638 16.2653C1.0956 16.2234 1.43256 16.1853 1.7699 16.1457C1.77067 16.1515 1.77105 16.1573 1.77182 16.163ZM34.5688 31.4328C34.5499 31.4059 34.5299 31.3732 34.5064 31.3436C33.5952 30.1939 32.6847 29.0434 31.7715 27.8952C31.4792 27.5275 31.4534 27.2213 31.6873 26.8178C32.3077 25.7485 32.7809 24.618 33.089 23.4198C33.1944 23.009 33.4336 22.7944 33.8514 22.7459C35.0223 22.6105 36.1935 22.4797 37.3644 22.3463C37.7056 22.3074 38.0464 22.2639 38.3903 22.222V17.7766C38.2645 17.7605 38.1514 17.7447 38.038 17.7316C36.6378 17.5693 35.2377 17.4085 33.8379 17.2443C33.4348 17.197 33.1932 16.9885 33.0944 16.6011C32.7839 15.383 32.3047 14.2356 31.6688 13.152C31.4546 12.787 31.4807 12.4727 31.745 12.1373C32.102 11.6846 32.4624 11.2341 32.8205 10.7826C33.4056 10.0452 33.9902 9.30743 34.5603 8.58814C33.5063 7.53266 32.4631 6.48796 31.4146 5.43787C31.3838 5.46095 31.3423 5.49095 31.3026 5.52249C30.1729 6.41795 29.0428 7.31341 27.9138 8.21003C27.5049 8.53467 27.2191 8.55006 26.7714 8.28811C25.7267 7.67652 24.6162 7.21994 23.4441 6.91607C23.0045 6.80222 22.7944 6.5622 22.7433 6.11523C22.5786 4.67049 22.4067 3.22652 22.2467 1.7814C22.2294 1.62561 22.1701 1.59715 22.0317 1.59792C20.6665 1.60292 19.301 1.60215 17.9358 1.6033C17.8862 1.6033 17.8362 1.60984 17.7789 1.61407C17.7724 1.65331 17.7658 1.6837 17.7624 1.71408C17.6485 2.69417 17.5358 3.67425 17.4204 4.65395C17.3562 5.20092 17.2969 5.74866 17.2165 6.29333C17.1711 6.60028 16.9677 6.80029 16.6722 6.87838C15.4333 7.20648 14.2555 7.67806 13.1499 8.32966C12.7834 8.54583 12.4706 8.51775 12.1364 8.25311C11.4586 7.71576 10.7816 7.17725 10.1042 6.63989C9.59265 6.23409 9.08067 5.82905 8.58331 5.43517C7.52858 6.48911 6.48386 7.53305 5.43413 8.5816C5.45106 8.60391 5.47337 8.63468 5.49722 8.66469C6.40924 9.8144 7.32087 10.9641 8.23327 12.1134C8.526 12.4823 8.54869 12.7777 8.30636 13.1912C7.66706 14.2813 7.20432 15.443 6.88082 16.6631C6.79851 16.9742 6.59079 17.1823 6.26653 17.2231C5.17372 17.3604 4.07937 17.4854 2.9858 17.6143C2.52959 17.6682 2.07301 17.7209 1.60719 17.7751V22.2047C1.63527 22.2166 1.65219 22.2282 1.66989 22.2305C2.68769 22.3493 3.70549 22.4674 4.72367 22.5851C5.20719 22.6409 5.69185 22.6909 6.17498 22.7521C6.54887 22.7994 6.79851 23.0025 6.89506 23.3744C7.21355 24.6034 7.69322 25.765 8.33636 26.8597C8.54138 27.2086 8.50984 27.5402 8.25674 27.8575C7.55397 28.7395 6.85467 29.6242 6.15382 30.5081C5.90841 30.8178 5.66377 31.1278 5.4299 31.4232C6.48732 32.481 7.52858 33.5218 8.57408 34.5677C8.6087 34.5415 8.64947 34.5112 8.68948 34.4792C9.8446 33.5641 10.9993 32.6491 12.1548 31.7344C12.463 31.4905 12.7884 31.4582 13.1192 31.6521C14.2201 32.2971 15.3852 32.7833 16.6215 33.1018C16.9773 33.1933 17.1965 33.4264 17.2404 33.8015C17.3531 34.7619 17.4643 35.7228 17.5758 36.6833C17.6416 37.2479 17.7066 37.813 17.7727 38.383H22.2271C22.3982 36.8952 22.5717 35.4197 22.736 33.9434C22.7921 33.4388 22.9737 33.208 23.4607 33.0791C24.6373 32.7675 25.7536 32.311 26.8029 31.6932C27.2126 31.452 27.5107 31.469 27.8819 31.7628C28.7358 32.4387 29.5886 33.1164 30.4418 33.793C30.7722 34.0553 31.1034 34.3169 31.4288 34.5742C32.482 33.5207 33.5233 32.4791 34.5691 31.4332L34.5688 31.4328Z" fill="white"/>
<path d="M19.9983 31.3827C13.7231 31.3815 8.61097 26.2749 8.61328 20.0098C8.61559 13.7104 13.7173 8.61265 20.0164 8.61572C26.2905 8.6188 31.3911 13.74 31.3818 20.0275C31.3726 26.2853 26.2613 31.3842 19.9987 31.3831L19.9983 31.3827ZM19.1967 10.2566C14.3423 10.6055 10.5335 14.677 10.2611 19.1989C10.3246 19.1989 10.3865 19.1989 10.4489 19.1989C10.7885 19.1989 11.1285 19.1947 11.4682 19.2001C11.8109 19.2055 12.0967 19.4051 12.2079 19.7167C12.3248 20.0444 12.2552 20.3364 12.0086 20.581C11.8502 20.7379 11.6505 20.7995 11.4309 20.7995C11.0416 20.7999 10.6523 20.7995 10.2619 20.7995C10.5796 25.6584 14.692 29.4848 19.1959 29.7268C19.1959 29.6633 19.1959 29.601 19.1959 29.5387C19.1959 29.199 19.1898 28.859 19.1979 28.5194C19.2075 28.102 19.5264 27.7666 19.9268 27.737C20.3522 27.7058 20.7257 27.9751 20.7738 28.4021C20.815 28.7694 20.7934 29.144 20.7992 29.5152C20.8003 29.5891 20.7992 29.6629 20.7992 29.7383C25.7766 29.3929 29.5282 25.1222 29.7221 20.8002C29.332 20.8002 28.9424 20.8045 28.5531 20.7991C28.0865 20.7929 27.7334 20.4483 27.7322 20.0071C27.7307 19.5474 28.0773 19.2047 28.5546 19.1997C28.8816 19.1959 29.2085 19.1997 29.5355 19.1986C29.6024 19.1986 29.669 19.1924 29.7359 19.1889C29.3986 14.2208 25.1066 10.4593 20.7988 10.2763C20.7988 10.6597 20.7988 11.0432 20.7988 11.4264C20.7988 11.6537 20.7307 11.856 20.5711 12.0206C20.3438 12.2557 20.0037 12.3303 19.7033 12.2064C19.381 12.0733 19.2082 11.8237 19.199 11.4783C19.1882 11.0759 19.1963 10.6736 19.1963 10.2574L19.1967 10.2566Z" fill="white"/>
<path d="M19.1984 17.4165C19.1984 16.5899 19.198 15.7637 19.1984 14.9371C19.1984 14.4266 19.5234 14.0755 19.9981 14.0708C20.4555 14.0662 20.7943 14.4155 20.7963 14.9186C20.8016 16.4372 20.8005 17.9562 20.7963 19.4748C20.7963 19.6125 20.8317 19.7125 20.9309 19.8113C21.9675 20.8399 23.0007 21.8723 24.0328 22.9058C24.367 23.2409 24.3716 23.7363 24.0508 24.0583C23.7412 24.3694 23.24 24.3675 22.9126 24.0413C21.7594 22.8935 20.6105 21.7419 19.4588 20.5926C19.2761 20.4102 19.1942 20.1921 19.1953 19.9352C19.198 19.0959 19.1965 18.2562 19.1965 17.4169H19.198L19.1984 17.4165Z" fill="white"/>
</g>
<defs>
<clipPath id="clip0_384_108">
<rect width="40" height="40" fill="white"/>
</clipPath>
</defs>
</svg>
