<svg width="23" height="23" viewBox="0 0 23 23" fill="none" xmlns="http://www.w3.org/2000/svg">
<path d="M13.4173 1.91666H5.75065C5.24232 1.91666 4.75481 2.11859 4.39536 2.47804C4.03592 2.83748 3.83398 3.32499 3.83398 3.83332V19.1667C3.83398 19.675 4.03592 20.1625 4.39536 20.5219C4.75481 20.8814 5.24232 21.0833 5.75065 21.0833H17.2507C17.759 21.0833 18.2465 20.8814 18.6059 20.5219C18.9654 20.1625 19.1673 19.675 19.1673 19.1667V7.66666L13.4173 1.91666Z" stroke="#0984E3" stroke-linecap="round" stroke-linejoin="round"/>
<path d="M13.416 1.91666V7.66666H19.166" stroke="#0984E3" stroke-linecap="round" stroke-linejoin="round"/>
<path d="M15.3327 12.4583H7.66602" stroke="#0984E3" stroke-linecap="round" stroke-linejoin="round"/>
<path d="M15.3327 16.2917H7.66602" stroke="#0984E3" stroke-linecap="round" stroke-linejoin="round"/>
<path d="M9.58268 8.625H8.62435H7.66602" stroke="#0984E3" stroke-linecap="round" stroke-linejoin="round"/>
</svg>
