<svg width="194" height="41" viewBox="0 0 194 41" fill="none" xmlns="http://www.w3.org/2000/svg">
<path d="M48.21 25L56.55 4.54H58.77L66.87 25H64.14L62.04 19.48H52.98L50.85 25H48.21ZM56.04 11.53L53.82 17.26H61.2L59.04 11.5C58.62 10.39 57.99 8.56 57.63 7.36H57.51C57.12 8.62 56.49 10.36 56.04 11.53ZM76.4223 15.9H74.4223C74.2223 14.975 73.4473 14.3 72.4973 14.3C71.2723 14.3 70.5973 15.025 70.5973 15.9C70.5973 16.65 70.9473 17.275 73.1223 17.975C75.7723 18.825 76.5973 20.2 76.5973 21.8C76.5973 24 74.9973 25.425 72.5473 25.425C69.8973 25.425 68.5723 23.875 68.1973 21.8H70.1973C70.4223 22.85 71.1473 23.725 72.6223 23.725C73.9473 23.725 74.6223 22.95 74.6223 21.95C74.6223 20.925 74.1723 20.25 71.9473 19.525C69.6973 18.8 68.6473 17.675 68.6473 15.875C68.6473 14.125 69.9473 12.625 72.3973 12.625C74.8473 12.625 76.0223 14.125 76.4223 15.9ZM84.8924 12.625C88.3174 12.625 89.8924 14.725 90.2924 16.1H88.0924C87.6174 15.1 86.5674 14.35 84.8924 14.35C82.6174 14.35 80.6424 15.9 80.6424 19C80.6424 21.7 82.4924 23.675 85.0174 23.675C86.8924 23.675 87.7924 22.7 88.2674 21.7H90.4674C89.8424 23.475 88.2424 25.425 84.9924 25.425C81.2924 25.425 78.5924 22.775 78.5924 18.975C78.5924 15.475 81.0424 12.625 84.8924 12.625ZM98.1166 12.625C102.467 12.65 104.042 16.225 104.042 18.85C104.042 19.075 104.017 19.45 103.992 19.575H94.2166C94.2166 21.75 96.2166 23.675 98.4666 23.675C99.8916 23.675 100.767 23.15 101.542 22.225H103.817C103.017 23.725 101.342 25.425 98.5166 25.425C94.7166 25.425 92.1666 22.575 92.1666 18.85C92.1666 15.55 94.4916 12.625 98.1166 12.625ZM98.1166 14.35C95.8416 14.35 94.4166 16.1 94.2416 17.925H101.967C101.767 16.05 100.292 14.35 98.1166 14.35ZM106.663 25V13.025H108.638V14.525H108.688C109.788 13.1 111.163 12.625 112.463 12.625C114.638 12.625 117.188 13.975 117.188 18.025V25H115.213V18.15C115.213 15.725 114.038 14.4 112.163 14.4C110.013 14.4 108.638 15.85 108.638 18.625V25H106.663ZM132.207 7V25H130.232V23.4H130.182C129.307 24.45 127.832 25.425 125.707 25.425C122.457 25.425 119.657 22.9 119.657 19C119.657 15.375 122.232 12.625 125.707 12.625C127.957 12.625 129.157 13.525 130.182 14.725H130.232V7H132.207ZM121.707 19C121.707 21.3 123.182 23.675 126.057 23.675C128.382 23.675 130.407 21.8 130.407 19.075C130.407 16.225 128.507 14.35 126.107 14.35C123.182 14.35 121.707 16.675 121.707 19ZM147.392 13.025V25H145.417V23.4H145.367C144.492 24.45 143.017 25.425 140.992 25.425C137.742 25.425 134.842 22.9 134.842 19C134.842 15.3 137.542 12.625 141.117 12.625C143.292 12.625 144.567 13.775 145.392 14.75H145.417V13.025H147.392ZM136.892 19C136.892 21.3 138.317 23.675 141.267 23.675C143.517 23.675 145.592 21.775 145.592 19.075C145.592 16.225 143.667 14.35 141.317 14.35C138.317 14.35 136.892 16.7 136.892 19ZM150.853 25V13.025H152.828V14.525H152.878C153.978 13.1 155.353 12.625 156.653 12.625C158.828 12.625 161.378 13.975 161.378 18.025V25H159.403V18.15C159.403 15.725 158.228 14.4 156.353 14.4C154.203 14.4 152.828 15.85 152.828 18.625V25H150.853ZM170.146 12.625C173.571 12.625 175.146 14.725 175.546 16.1H173.346C172.871 15.1 171.821 14.35 170.146 14.35C167.871 14.35 165.896 15.9 165.896 19C165.896 21.7 167.746 23.675 170.271 23.675C172.146 23.675 173.046 22.7 173.521 21.7H175.721C175.096 23.475 173.496 25.425 170.246 25.425C166.546 25.425 163.846 22.775 163.846 18.975C163.846 15.475 166.296 12.625 170.146 12.625ZM187.271 13.025L180.671 30.875H178.771L180.946 25L176.546 13.025H178.571L181.096 20C181.321 20.575 181.771 21.875 181.896 22.525H181.946C182.221 21.675 182.471 20.875 182.771 20L185.271 13.025H187.271ZM51.88 29.96C53.78 29.96 54.79 31.15 55.08 32.18H53.79C53.55 31.53 52.88 30.98 51.87 30.98C50.6 30.98 49.56 31.97 49.56 33.58C49.56 35.02 50.52 36.2 51.91 36.2C52.95 36.2 53.6 35.6 53.87 34.88H55.19C54.7 36.21 53.65 37.22 51.87 37.22C49.76 37.22 48.35 35.65 48.35 33.57C48.35 31.49 49.86 29.96 51.88 29.96ZM62.6967 33.59C62.6967 35.06 63.7367 36.16 65.0967 36.16C66.4667 36.16 67.5067 35.06 67.5067 33.59C67.5067 32.15 66.5467 31.02 65.1067 31.02C63.7467 31.02 62.6967 32.11 62.6967 33.59ZM61.4867 33.59C61.4867 31.64 63.0067 29.96 65.1167 29.96C67.3567 29.96 68.7167 31.69 68.7167 33.59C68.7167 35.58 67.1667 37.22 65.1067 37.22C62.6067 37.22 61.4867 35.28 61.4867 33.59ZM76.3164 31.97H76.2864C76.2964 32.31 76.3164 32.99 76.3164 33.33V37H75.2664V30.18H76.3164L78.3464 33.26C79.0464 34.31 79.3664 34.86 79.5664 35.24H79.5864C79.5764 34.88 79.5664 34.24 79.5664 33.91V30.18H80.6064V37H79.5664L77.6264 34.07C76.7864 32.8 76.5264 32.35 76.3164 31.97ZM91.7045 31.8H90.5445C90.4745 31.29 90.1345 30.94 89.5745 30.94C89.0245 30.94 88.6545 31.29 88.6545 31.79C88.6545 32.35 89.1245 32.63 89.8745 32.87C91.3345 33.33 91.8445 34.09 91.8445 35.12C91.8445 36.12 91.1245 37.22 89.6045 37.22C88.3345 37.22 87.4245 36.51 87.2445 35.16H88.4445C88.5545 35.81 88.9345 36.24 89.6145 36.24C90.3045 36.24 90.6745 35.73 90.6745 35.19C90.6745 34.54 90.2645 34.18 89.3545 33.89C88.0445 33.47 87.4945 32.77 87.4945 31.8C87.4945 30.72 88.3945 29.96 89.5845 29.96C90.8045 29.96 91.6145 30.72 91.7045 31.8ZM101.021 37.22C99.6713 37.22 98.4613 36.46 98.4613 34.29V30.18H99.6413V34.4C99.6413 35.49 100.151 36.2 101.021 36.2C102.031 36.2 102.391 35.43 102.391 34.4V30.18H103.561V34.27C103.561 36.41 102.461 37.22 101.021 37.22ZM110.37 37V30.18H111.55V35.96H114.42V37H110.37ZM121.267 37V31.22H119.567V30.18H124.147V31.22H122.447V37H121.267ZM130.442 37V30.18H131.622V37H130.442ZM139.58 31.97H139.55C139.56 32.31 139.58 32.99 139.58 33.33V37H138.53V30.18H139.58L141.61 33.26C142.31 34.31 142.63 34.86 142.83 35.24H142.85C142.84 34.88 142.83 34.24 142.83 33.91V30.18H143.87V37H142.83L140.89 34.07C140.05 32.8 139.79 32.35 139.58 31.97ZM153.628 33.27H157.458V33.49C157.458 35.42 156.278 37.21 153.968 37.21C151.868 37.21 150.428 35.56 150.428 33.61C150.428 31.56 151.938 29.97 153.968 29.97C155.628 29.97 156.768 30.8 157.228 32.03H155.948C155.618 31.4 154.918 30.99 153.998 30.99C152.608 30.99 151.638 32.06 151.638 33.58C151.638 35.18 152.668 36.19 154.058 36.19C155.228 36.19 156.078 35.35 156.198 34.27H153.628V33.27Z" fill="white"/>
<path d="M21.5172 5L36 5L14.4828 37H0L21.5172 5Z" fill="#0984E3"/>
<path d="M33.5517 19L42 19L29.4483 37H21L33.5517 19Z" fill="#0984E3"/>
</svg>
