<svg width="194" height="41" viewBox="0 0 194 41" fill="none" xmlns="http://www.w3.org/2000/svg">
<path d="M48.21 25L56.55 4.54H58.77L66.87 25H64.14L62.04 19.48H52.98L50.85 25H48.21ZM56.04 11.53L53.82 17.26H61.2L59.04 11.5C58.5 10.08 58.03 8.7 57.63 7.36H57.51C57.15 8.54 56.66 9.93 56.04 11.53ZM76.4223 15.9H74.4223C74.3223 15.4333 74.0889 15.05 73.7223 14.75C73.3723 14.45 72.9639 14.3 72.4973 14.3C71.9139 14.3 71.4473 14.4583 71.0973 14.775C70.7639 15.075 70.5973 15.45 70.5973 15.9C70.5973 16.3167 70.7639 16.6917 71.0973 17.025C71.4473 17.3417 72.1223 17.6583 73.1223 17.975C75.4389 18.725 76.5973 20 76.5973 21.8C76.5973 22.9 76.2306 23.7833 75.4973 24.45C74.7639 25.1 73.7806 25.425 72.5473 25.425C71.2806 25.425 70.2889 25.1 69.5723 24.45C68.8556 23.7833 68.3973 22.9 68.1973 21.8H70.1973C70.4806 23.0833 71.2889 23.725 72.6223 23.725C73.2556 23.725 73.7473 23.5583 74.0973 23.225C74.4473 22.8917 74.6223 22.4667 74.6223 21.95C74.6223 21.4 74.4389 20.95 74.0723 20.6C73.7056 20.2333 72.9973 19.875 71.9473 19.525C70.8139 19.1583 69.9806 18.6833 69.4473 18.1C68.9139 17.5167 68.6473 16.775 68.6473 15.875C68.6473 14.9583 68.9723 14.1917 69.6223 13.575C70.2889 12.9417 71.2139 12.625 72.3973 12.625C74.5806 12.625 75.9223 13.7167 76.4223 15.9ZM84.8924 12.625C86.4257 12.625 87.6424 12.9917 88.5424 13.725C89.459 14.4417 90.0424 15.2333 90.2924 16.1H88.0924C87.5424 14.9333 86.4757 14.35 84.8924 14.35C83.6924 14.35 82.684 14.7583 81.8674 15.575C81.0507 16.375 80.6424 17.5167 80.6424 19C80.6424 20.35 81.0507 21.4667 81.8674 22.35C82.7007 23.2333 83.7507 23.675 85.0174 23.675C86.5507 23.675 87.634 23.0167 88.2674 21.7H90.4674C90.1007 22.75 89.4674 23.6333 88.5674 24.35C87.6674 25.0667 86.4757 25.425 84.9924 25.425C83.1257 25.425 81.5924 24.825 80.3924 23.625C79.1924 22.4083 78.5924 20.8583 78.5924 18.975C78.5924 17.175 79.1674 15.6667 80.3174 14.45C81.484 13.2333 83.009 12.625 84.8924 12.625ZM98.1166 12.625C99.1499 12.625 100.067 12.825 100.867 13.225C101.667 13.625 102.283 14.1417 102.717 14.775C103.167 15.4083 103.5 16.075 103.717 16.775C103.933 17.4583 104.042 18.15 104.042 18.85C104.042 19.1667 104.025 19.4083 103.992 19.575H94.2166C94.2166 20.6583 94.6416 21.6167 95.4916 22.45C96.3416 23.2667 97.3333 23.675 98.4666 23.675C99.6999 23.675 100.725 23.1917 101.542 22.225H103.817C103.35 23.1083 102.667 23.8667 101.767 24.5C100.883 25.1167 99.7999 25.425 98.5166 25.425C96.6333 25.425 95.0999 24.8 93.9166 23.55C92.7499 22.3 92.1666 20.7333 92.1666 18.85C92.1666 17.1333 92.7166 15.6667 93.8166 14.45C94.9166 13.2333 96.3499 12.625 98.1166 12.625ZM98.1166 14.35C97.0333 14.35 96.1416 14.7083 95.4416 15.425C94.7416 16.125 94.3416 16.9583 94.2416 17.925H101.967C101.867 16.9417 101.458 16.1 100.742 15.4C100.042 14.7 99.1666 14.35 98.1166 14.35ZM106.663 25V13.025H108.638V14.525H108.688C109.672 13.2583 110.93 12.625 112.463 12.625C113.73 12.625 114.83 13.0667 115.763 13.95C116.713 14.8167 117.188 16.175 117.188 18.025V25H115.213V18.15C115.213 16.95 114.938 16.025 114.388 15.375C113.855 14.725 113.113 14.4 112.163 14.4C111.063 14.4 110.197 14.7667 109.563 15.5C108.947 16.2167 108.638 17.2583 108.638 18.625V25H106.663ZM132.207 7V25H130.232V23.4H130.182C129.065 24.75 127.574 25.425 125.707 25.425C124.024 25.425 122.59 24.8333 121.407 23.65C120.24 22.45 119.657 20.9 119.657 19C119.657 17.1833 120.232 15.6667 121.382 14.45C122.532 13.2333 123.974 12.625 125.707 12.625C126.74 12.625 127.599 12.8083 128.282 13.175C128.965 13.525 129.599 14.0417 130.182 14.725H130.232V7H132.207ZM122.857 15.75C122.09 16.6667 121.707 17.75 121.707 19C121.707 20.25 122.09 21.3417 122.857 22.275C123.64 23.2083 124.707 23.675 126.057 23.675C127.257 23.675 128.282 23.2417 129.132 22.375C129.982 21.5083 130.407 20.4083 130.407 19.075C130.407 17.675 129.99 16.5417 129.157 15.675C128.34 14.7917 127.324 14.35 126.107 14.35C124.724 14.35 123.64 14.8167 122.857 15.75ZM147.392 13.025V25H145.417V23.4H145.367C144.251 24.75 142.792 25.425 140.992 25.425C139.309 25.425 137.859 24.8333 136.642 23.65C135.442 22.45 134.842 20.9 134.842 19C134.842 17.15 135.434 15.625 136.617 14.425C137.817 13.225 139.317 12.625 141.117 12.625C142.767 12.625 144.192 13.3333 145.392 14.75H145.417V13.025H147.392ZM138.042 15.75C137.276 16.6667 136.892 17.75 136.892 19C136.892 20.25 137.276 21.3417 138.042 22.275C138.809 23.2083 139.884 23.675 141.267 23.675C142.434 23.675 143.442 23.2417 144.292 22.375C145.159 21.4917 145.592 20.3917 145.592 19.075C145.592 17.675 145.176 16.5417 144.342 15.675C143.526 14.7917 142.517 14.35 141.317 14.35C139.901 14.35 138.809 14.8167 138.042 15.75ZM150.853 25V13.025H152.828V14.525H152.878C153.861 13.2583 155.12 12.625 156.653 12.625C157.92 12.625 159.02 13.0667 159.953 13.95C160.903 14.8167 161.378 16.175 161.378 18.025V25H159.403V18.15C159.403 16.95 159.128 16.025 158.578 15.375C158.045 14.725 157.303 14.4 156.353 14.4C155.253 14.4 154.386 14.7667 153.753 15.5C153.136 16.2167 152.828 17.2583 152.828 18.625V25H150.853ZM170.146 12.625C171.68 12.625 172.896 12.9917 173.796 13.725C174.713 14.4417 175.296 15.2333 175.546 16.1H173.346C172.796 14.9333 171.73 14.35 170.146 14.35C168.946 14.35 167.938 14.7583 167.121 15.575C166.305 16.375 165.896 17.5167 165.896 19C165.896 20.35 166.305 21.4667 167.121 22.35C167.955 23.2333 169.005 23.675 170.271 23.675C171.805 23.675 172.888 23.0167 173.521 21.7H175.721C175.355 22.75 174.721 23.6333 173.821 24.35C172.921 25.0667 171.73 25.425 170.246 25.425C168.38 25.425 166.846 24.825 165.646 23.625C164.446 22.4083 163.846 20.8583 163.846 18.975C163.846 17.175 164.421 15.6667 165.571 14.45C166.738 13.2333 168.263 12.625 170.146 12.625ZM187.271 13.025L180.671 30.875H178.771L180.946 25L176.546 13.025H178.571L181.096 20C181.512 21.05 181.779 21.8917 181.896 22.525H181.946C182.396 21.125 182.671 20.2833 182.771 20L185.271 13.025H187.271ZM51.88 29.96C52.7533 29.96 53.4633 30.1833 54.01 30.63C54.5567 31.07 54.9133 31.5867 55.08 32.18H53.79C53.6633 31.8333 53.43 31.5467 53.09 31.32C52.7567 31.0933 52.35 30.98 51.87 30.98C51.2167 30.98 50.6667 31.2167 50.22 31.69C49.78 32.1633 49.56 32.7933 49.56 33.58C49.56 34.3133 49.78 34.9333 50.22 35.44C50.66 35.9467 51.2233 36.2 51.91 36.2C52.4033 36.2 52.8167 36.0767 53.15 35.83C53.4833 35.5833 53.7233 35.2667 53.87 34.88H55.19C54.93 35.5933 54.5233 36.1633 53.97 36.59C53.4167 37.01 52.7167 37.22 51.87 37.22C50.83 37.22 49.9833 36.8767 49.33 36.19C48.6767 35.4967 48.35 34.6233 48.35 33.57C48.35 32.53 48.6833 31.67 49.35 30.99C50.0233 30.3033 50.8667 29.96 51.88 29.96ZM63.3867 31.76C62.9267 32.2467 62.6967 32.8567 62.6967 33.59C62.6967 34.3233 62.9267 34.9367 63.3867 35.43C63.8467 35.9167 64.4167 36.16 65.0967 36.16C65.7834 36.16 66.3567 35.9167 66.8167 35.43C67.2767 34.9367 67.5067 34.3233 67.5067 33.59C67.5067 32.8567 67.2834 32.2467 66.8367 31.76C66.3901 31.2667 65.8134 31.02 65.1067 31.02C64.4267 31.02 63.8534 31.2667 63.3867 31.76ZM61.4867 33.59C61.4867 32.5967 61.8301 31.7433 62.5167 31.03C63.2101 30.3167 64.0767 29.96 65.1167 29.96C66.1967 29.96 67.0667 30.3167 67.7267 31.03C68.3867 31.7433 68.7167 32.5967 68.7167 33.59C68.7167 34.5967 68.3701 35.4533 67.6767 36.16C66.9834 36.8667 66.1267 37.22 65.1067 37.22C64.5067 37.22 63.9667 37.1133 63.4867 36.9C63.0134 36.68 62.6334 36.3933 62.3467 36.04C62.0667 35.68 61.8534 35.2933 61.7067 34.88C61.5601 34.46 61.4867 34.03 61.4867 33.59ZM76.3164 31.97H76.2864C76.3064 32.65 76.3164 33.1033 76.3164 33.33V37H75.2664V30.18H76.3164L78.3464 33.26C78.9131 34.1067 79.3197 34.7667 79.5664 35.24H79.5864C79.5731 34.76 79.5664 34.3167 79.5664 33.91V30.18H80.6064V37H79.5664L77.6264 34.07C77.0197 33.1567 76.5831 32.4567 76.3164 31.97ZM91.7045 31.8H90.5445C90.5111 31.54 90.4078 31.3333 90.2345 31.18C90.0678 31.02 89.8478 30.94 89.5745 30.94C89.3011 30.94 89.0778 31.02 88.9045 31.18C88.7378 31.3333 88.6545 31.5367 88.6545 31.79C88.6545 32.0567 88.7545 32.27 88.9545 32.43C89.1611 32.59 89.4678 32.7367 89.8745 32.87C90.5811 33.09 91.0845 33.3867 91.3845 33.76C91.6911 34.1267 91.8445 34.58 91.8445 35.12C91.8445 35.6733 91.6478 36.1633 91.2545 36.59C90.8678 37.01 90.3178 37.22 89.6045 37.22C88.9578 37.22 88.4245 37.0433 88.0045 36.69C87.5845 36.3367 87.3311 35.8267 87.2445 35.16H88.4445C88.5045 35.5 88.6311 35.7667 88.8245 35.96C89.0245 36.1467 89.2878 36.24 89.6145 36.24C89.9411 36.24 90.1978 36.1367 90.3845 35.93C90.5778 35.7233 90.6745 35.4767 90.6745 35.19C90.6745 34.87 90.5711 34.61 90.3645 34.41C90.1578 34.21 89.8211 34.0367 89.3545 33.89C88.1145 33.49 87.4945 32.7933 87.4945 31.8C87.4945 31.2667 87.6911 30.8267 88.0845 30.48C88.4845 30.1333 88.9845 29.96 89.5845 29.96C90.1845 29.96 90.6745 30.13 91.0545 30.47C91.4411 30.81 91.6578 31.2533 91.7045 31.8ZM101.021 37.22C100.275 37.22 99.6613 36.9867 99.1813 36.52C98.7013 36.0467 98.4613 35.3033 98.4613 34.29V30.18H99.6413V34.4C99.6413 34.9533 99.7613 35.3933 100.001 35.72C100.248 36.04 100.588 36.2 101.021 36.2C101.935 36.2 102.391 35.6 102.391 34.4V30.18H103.561V34.27C103.561 35.2833 103.331 36.03 102.871 36.51C102.411 36.9833 101.795 37.22 101.021 37.22ZM110.37 37V30.18H111.55V35.96H114.42V37H110.37ZM121.267 37V31.22H119.567V30.18H124.147V31.22H122.447V37H121.267ZM130.442 37V30.18H131.622V37H130.442ZM139.58 31.97H139.55C139.57 32.65 139.58 33.1033 139.58 33.33V37H138.53V30.18H139.58L141.61 33.26C142.177 34.1067 142.583 34.7667 142.83 35.24H142.85C142.837 34.76 142.83 34.3167 142.83 33.91V30.18H143.87V37H142.83L140.89 34.07C140.283 33.1567 139.847 32.4567 139.58 31.97ZM153.628 33.27H157.458V33.49C157.458 34.15 157.331 34.7567 157.078 35.31C156.825 35.8633 156.428 36.32 155.888 36.68C155.348 37.0333 154.708 37.21 153.968 37.21C152.941 37.21 152.095 36.86 151.428 36.16C150.761 35.46 150.428 34.61 150.428 33.61C150.428 32.5833 150.765 31.72 151.438 31.02C152.111 30.32 152.955 29.97 153.968 29.97C154.775 29.97 155.458 30.1567 156.018 30.53C156.585 30.8967 156.988 31.3967 157.228 32.03H155.948C155.781 31.71 155.528 31.4567 155.188 31.27C154.848 31.0833 154.451 30.99 153.998 30.99C153.305 30.99 152.738 31.2333 152.298 31.72C151.858 32.2 151.638 32.82 151.638 33.58C151.638 34.3667 151.865 35 152.318 35.48C152.771 35.9533 153.351 36.19 154.058 36.19C154.631 36.19 155.115 36.01 155.508 35.65C155.908 35.2833 156.138 34.8233 156.198 34.27H153.628V33.27Z" fill="#4A4A4A"/>
<path d="M21.5172 5L36 5L14.4828 37H0L21.5172 5Z" fill="#0984E3"/>
<path d="M33.5517 19L42 19L29.4483 37H21L33.5517 19Z" fill="#0984E3"/>
</svg>
